BlackOpsOne.ufo
<glyph name="exclam" format="1">
  <advance width="753"/>
  <unicode hex="0021"/>
  <outline>
    <contour>
      <point x="612" y="1327" type="line" name="hr00"/>
      <point x="142" y="1327" type="line"/>
      <point x="169" y="442" type="line"/>
      <point x="584" y="442" type="line"/>
    </contour>
    <contour>
      <point x="156" y="0" type="line"/>
      <point x="598" y="0" type="line"/>
      <point x="598" y="309" type="line"/>
      <point x="156" y="309" type="line"/>
    </contour>
  </outline>
</glyph>
<glyph name="numbersign" format="1">
  <advance width="1699"/>
  <unicode hex="0023"/>
  <outline>
    <contour>
      <point x="718" y="805" type="line" name="hr00"/>
      <point x="932" y="805" type="line"/>
      <point x="954" y="1042" type="line"/>
      <point x="740" y="1042" type="line"/>
      <point x="764" y="1327" type="line"/>
      <point x="527" y="1327" type="line"/>
      <point x="502" y="1042" type="line"/>
      <point x="253" y="1042" type="line"/>
      <point x="232" y="805" type="line"/>
      <point x="481" y="805" type="line"/>
      <point x="456" y="522" type="line"/>
      <point x="206" y="522" type="line"/>
      <point x="186" y="285" type="line"/>
      <point x="437" y="285" type="line"/>
      <point x="412" y="0" type="line"/>
      <point x="649" y="0" type="line"/>
      <point x="674" y="285" type="line"/>
      <point x="886" y="285" type="line"/>
      <point x="907" y="522" type="line"/>
      <point x="696" y="522" type="line"/>
    </contour>
    <contour>
      <point x="932" y="0" type="line"/>
      <point x="1169" y="0" type="line"/>
      <point x="1194" y="285" type="line"/>
      <point x="1445" y="285" type="line"/>
      <point x="1467" y="522" type="line"/>
      <point x="1216" y="522" type="line"/>
      <point x="1240" y="805" type="line"/>
      <point x="1491" y="805" type="line"/>
      <point x="1513" y="1042" type="line"/>
      <point x="1260" y="1042" type="line"/>
      <point x="1285" y="1327" type="line"/>
      <point x="1047" y="1327" type="line"/>
    </contour>
  </outline>
</glyph>
<glyph name="dollar" format="1">
  <advance width="1743"/>
  <unicode hex="0024"/>
  <outline>
    <contour>
      <point x="672" y="1327" type="line" name="hr01"/>
      <point x="495" y="1327" type="line"/>
      <point x="230" y="1062" type="line"/>
      <point x="230" y="797" type="line"/>
      <point x="495" y="530" type="line"/>
      <point x="1070" y="530" type="line"/>
      <point x="1070" y="0" type="line"/>
      <point x="1248" y="0" type="line"/>
      <point x="1513" y="265" type="line"/>
      <point x="1513" y="530" type="line"/>
      <point x="1248" y="797" type="line"/>
      <point x="672" y="797" type="line"/>
    </contour>
    <contour>
      <point x="672" y="398" type="line" name="hr02"/>
      <point x="230" y="398" type="line"/>
      <point x="230" y="265" type="line"/>
      <point x="495" y="0" type="line" name="hr03"/>
      <point x="701" y="0" type="line"/>
      <point x="701" y="-157" type="line"/>
      <point x="1003" y="-157" type="line"/>
      <point x="1003" y="265" type="line"/>
      <point x="672" y="265" type="line"/>
    </contour>
    <contour>
      <point x="1070" y="1062" type="line"/>
      <point x="1070" y="929" type="line" name="hr04"/>
      <point x="1513" y="929" type="line"/>
      <point x="1513" y="1062" type="line"/>
      <point x="1248" y="1327" type="line" name="hr05"/>
      <point x="1039" y="1327" type="line"/>
      <point x="1039" y="1476" type="line"/>
      <point x="740" y="1476" type="line"/>
      <point x="740" y="1062" type="line"/>
    </contour>
  </outline>
</glyph>
<glyph name="percent" format="1">
  <advance width="2392"/>
  <unicode hex="0025"/>
  <outline>
    <contour>
      <point x="1029" y="1129" type="line" name="hr01"/>
      <point x="829" y="1329" type="line"/>
      <point x="631" y="1329" type="line"/>
      <point x="631" y="1129" type="line"/>
      <point x="696" y="1129" type="line"/>
      <point x="696" y="783" type="line" name="hr02"/>
      <point x="631" y="783" type="line"/>
      <point x="631" y="582" type="line"/>
      <point x="829" y="582" type="line"/>
      <point x="1029" y="783" type="line"/>
    </contour>
    <contour>
      <point x="497" y="1129" type="line"/>
      <point x="561" y="1129" type="line"/>
      <point x="561" y="1329" type="line"/>
      <point x="364" y="1329" type="line"/>
      <point x="164" y="1129" type="line"/>
      <point x="164" y="783" type="line"/>
      <point x="364" y="582" type="line"/>
      <point x="561" y="582" type="line"/>
      <point x="561" y="783" type="line"/>
      <point x="497" y="783" type="line"/>
    </contour>
    <contour>
      <point x="2227" y="547" type="line"/>
      <point x="2028" y="746" type="line" name="hr03"/>
      <point x="1829" y="746" type="line"/>
      <point x="1829" y="547" type="line"/>
      <point x="1895" y="547" type="line"/>
      <point x="1895" y="200" type="line"/>
      <point x="1829" y="200" type="line"/>
      <point x="1829" y="0" type="line"/>
      <point x="2028" y="0" type="line"/>
      <point x="2227" y="200" type="line"/>
    </contour>
    <contour>
      <point x="1695" y="547" type="line"/>
      <point x="1759" y="547" type="line"/>
      <point x="1759" y="746" type="line"/>
      <point x="1562" y="746" type="line"/>
      <point x="1363" y="547" type="line"/>
      <point x="1363" y="200" type="line"/>
      <point x="1562" y="0" type="line"/>
      <point x="1759" y="0" type="line"/>
      <point x="1759" y="200" type="line"/>
      <point x="1695" y="200" type="line"/>
    </contour>
    <contour>
      <point x="746" y="-196" type="line"/>
      <point x="996" y="-196" type="line"/>
      <point x="1609" y="1458" type="line"/>
      <point x="1359" y="1458" type="line"/>
    </contour>
  </outline>
</glyph>
<glyph name="ampersand" format="1">
  <advance width="1666"/>
  <unicode hex="0026"/>
  <outline>
    <contour>
      <point x="1066" y="0" type="line" name="hr00"/>
      <point x="1555" y="0" type="line"/>
      <point x="1283" y="315" type="line"/>
      <point x="1579" y="556" type="line"/>
      <point x="1361" y="808" type="line"/>
      <point x="1060" y="574" type="line"/>
      <point x="710" y="980" type="line"/>
      <point x="710" y="1327" type="line"/>
      <point x="511" y="1327" type="line"/>
      <point x="285" y="1103" type="line"/>
      <point x="285" y="905" type="line"/>
      <point x="286" y="904" type="line"/>
    </contour>
    <contour>
      <point x="876" y="0" type="line"/>
      <point x="933" y="49" type="line"/>
      <point x="759" y="255" type="line"/>
      <point x="548" y="255" type="line"/>
      <point x="548" y="496" type="line"/>
      <point x="342" y="736" type="line"/>
      <point x="151" y="539" type="line"/>
      <point x="151" y="219" type="line"/>
      <point x="374" y="0" type="line"/>
    </contour>
    <contour>
      <point x="1143" y="1327" type="line"/>
      <point x="780" y="1327" type="line"/>
      <point x="780" y="1062" type="line"/>
      <point x="950" y="1062" type="line"/>
      <point x="950" y="929" type="line"/>
      <point x="1365" y="929" type="line"/>
      <point x="1365" y="1105" type="line"/>
    </contour>
  </outline>
</glyph>
<glyph name="quotesingle" format="1">
  <advance width="773"/>
  <unicode hex="0027"/>
  <outline>
    <contour>
      <point x="227" y="664" type="line" name="hr00"/>
      <point x="545" y="664" type="line"/>
      <point x="592" y="1327" type="line"/>
      <point x="181" y="1327" type="line"/>
    </contour>
  </outline>
</glyph>
<glyph name="parenleft" format="1">
  <advance width="978"/>
  <unicode hex="0028"/>
  <outline>
    <contour>
      <point x="672" y="1204" type="line" name="hr00"/>
      <point x="836" y="1204" type="line"/>
      <point x="836" y="1469" type="line"/>
      <point x="495" y="1469" type="line"/>
      <point x="238" y="1204" type="line"/>
      <point x="238" y="124" type="line"/>
      <point x="495" y="-142" type="line"/>
      <point x="836" y="-142" type="line"/>
      <point x="836" y="124" type="line"/>
      <point x="672" y="124" type="line"/>
    </contour>
  </outline>
</glyph>
<glyph name="asterisk" format="1">
  <advance width="1392"/>
  <unicode hex="002A"/>
  <outline>
    <contour>
      <point x="912" y="461" type="line" name="hr00"/>
      <point x="1102" y="598" type="line"/>
      <point x="960" y="871" type="line"/>
      <point x="1231" y="1008" type="line"/>
      <point x="1159" y="1233" type="line"/>
      <point x="857" y="1184" type="line"/>
      <point x="811" y="1481" type="line"/>
      <point x="578" y="1481" type="line"/>
      <point x="531" y="1184" type="line"/>
      <point x="232" y="1230" type="line"/>
      <point x="161" y="1008" type="line"/>
      <point x="429" y="871" type="line"/>
      <point x="289" y="600" type="line"/>
      <point x="480" y="461" type="line"/>
      <point x="696" y="678" type="line"/>
    </contour>
  </outline>
</glyph>
<glyph name="plus" format="1">
  <advance width="1439"/>
  <unicode hex="002B"/>
  <outline>
    <contour>
      <point x="186" y="501" type="line" name="hr00"/>
      <point x="601" y="501" type="line"/>
      <point x="601" y="86" type="line"/>
      <point x="842" y="86" type="line"/>
      <point x="842" y="501" type="line"/>
      <point x="1253" y="501" type="line"/>
      <point x="1253" y="740" type="line"/>
      <point x="842" y="740" type="line"/>
      <point x="842" y="1153" type="line"/>
      <point x="601" y="1153" type="line"/>
      <point x="601" y="740" type="line"/>
      <point x="186" y="740" type="line"/>
    </contour>
  </outline>
</glyph>
<glyph name="comma" format="1">
  <advance width="736"/>
  <unicode hex="002C"/>
  <outline>
    <contour>
      <point x="147" y="0" type="line" name="hr00"/>
      <point x="270" y="0" type="line"/>
      <point x="147" y="-265" type="line"/>
      <point x="412" y="-265" type="line"/>
      <point x="589" y="0" type="line"/>
      <point x="589" y="309" type="line"/>
      <point x="147" y="309" type="line"/>
    </contour>
  </outline>
</glyph>
<glyph name="hyphen" format="1">
  <advance width="1255"/>
  <unicode hex="002D"/>
  <outline>
    <contour>
      <point x="186" y="501" type="line" name="hr00"/>
      <point x="1069" y="501" type="line"/>
      <point x="1069" y="740" type="line"/>
      <point x="186" y="740" type="line"/>
    </contour>
  </outline>
</glyph>
<glyph name="period" format="1">
  <advance width="736"/>
  <unicode hex="002E"/>
  <outline>
    <contour>
      <point x="147" y="0" type="line" name="hr00"/>
      <point x="589" y="0" type="line"/>
      <point x="589" y="309" type="line"/>
      <point x="147" y="309" type="line"/>
    </contour>
  </outline>
</glyph>
<glyph name="slash" format="1">
  <advance width="746"/>
  <unicode hex="002F"/>
  <outline>
    <contour>
      <point x="-80" y="-196" type="line" name="hr00"/>
      <point x="169" y="-196" type="line"/>
      <point x="782" y="1418" type="line"/>
      <point x="532" y="1418" type="line"/>
    </contour>
  </outline>
</glyph>
<glyph name="zero" format="1">
  <advance width="1499"/>
  <unicode hex="0030"/>
  <outline>
    <contour>
      <point x="1391" y="1062" type="line" name="hr00"/>
      <point x="1126" y="1327" type="line"/>
      <point x="949" y="1327" type="line"/>
      <point x="949" y="265" type="line"/>
      <point x="618" y="265" type="line"/>
      <point x="618" y="0" type="line"/>
      <point x="1126" y="0" type="line"/>
      <point x="1391" y="265" type="line"/>
    </contour>
    <contour>
      <point x="550" y="1062" type="line"/>
      <point x="881" y="1062" type="line"/>
      <point x="881" y="1327" type="line"/>
      <point x="374" y="1327" type="line"/>
      <point x="108" y="1062" type="line"/>
      <point x="108" y="265" type="line"/>
      <point x="374" y="0" type="line"/>
      <point x="550" y="0" type="line"/>
    </contour>
  </outline>
</glyph>
<glyph name="one" format="1">
  <advance width="1167"/>
  <unicode hex="0031"/>
  <outline>
    <contour>
      <point x="142" y="1062" type="line" name="hr00"/>
      <point x="363" y="1062" type="line"/>
      <point x="363" y="326" type="line"/>
      <point x="805" y="326" type="line"/>
      <point x="805" y="1327" type="line"/>
      <point x="274" y="1327" type="line"/>
      <point x="142" y="1194" type="line"/>
    </contour>
    <contour>
      <point x="142" y="0" type="line"/>
      <point x="1026" y="0" type="line"/>
      <point x="1026" y="265" type="line"/>
      <point x="142" y="265" type="line"/>
    </contour>
  </outline>
</glyph>
<glyph name="two" format="1">
  <advance width="1464"/>
  <unicode hex="0032"/>
  <outline>
    <contour>
      <point x="550" y="469" type="line" name="hr01"/>
      <point x="1091" y="469" type="line"/>
      <point x="1356" y="734" type="line"/>
      <point x="1356" y="1062" type="line"/>
      <point x="1091" y="1327" type="line"/>
      <point x="914" y="1327" type="line"/>
      <point x="914" y="742" type="line"/>
      <point x="391" y="742" type="line"/>
      <point x="108" y="476" type="line"/>
      <point x="108" y="0" type="line"/>
      <point x="550" y="0" type="line"/>
    </contour>
    <contour>
      <point x="844" y="1088" type="line"/>
      <point x="844" y="1327" type="line"/>
      <point x="374" y="1327" type="line"/>
      <point x="108" y="1062" type="line" name="hr02"/>
      <point x="108" y="895" type="line"/>
      <point x="550" y="895" type="line"/>
      <point x="550" y="1088" type="line" name="hr03"/>
    </contour>
    <contour>
      <point x="1356" y="0" type="line"/>
      <point x="1356" y="239" type="line"/>
      <point x="620" y="239" type="line"/>
      <point x="620" y="0" type="line"/>
    </contour>
  </outline>
</glyph>
<glyph name="three" format="1">
  <advance width="1495"/>
  <unicode hex="0033"/>
  <outline>
    <contour>
      <point x="944" y="1327" type="line" name="hr00"/>
      <point x="944" y="791" type="line"/>
      <point x="636" y="791" type="line"/>
      <point x="636" y="560" type="line"/>
      <point x="944" y="560" type="line"/>
      <point x="944" y="0" type="line"/>
      <point x="1121" y="0" type="line"/>
      <point x="1387" y="264" type="line"/>
      <point x="1387" y="533" type="line"/>
      <point x="1230" y="668" type="line"/>
      <point x="1387" y="801" type="line"/>
      <point x="1387" y="1062" type="line"/>
      <point x="1121" y="1327" type="line"/>
    </contour>
    <contour>
      <point x="874" y="1045" type="line"/>
      <point x="874" y="1327" type="line"/>
      <point x="369" y="1327" type="line"/>
      <point x="104" y="1062" type="line"/>
      <point x="104" y="851" type="line"/>
      <point x="546" y="851" type="line"/>
      <point x="546" y="1045" type="line"/>
    </contour>
    <contour>
      <point x="369" y="0" type="line"/>
      <point x="874" y="0" type="line"/>
      <point x="874" y="283" type="line"/>
      <point x="546" y="283" type="line"/>
      <point x="546" y="470" type="line"/>
      <point x="104" y="470" type="line"/>
      <point x="104" y="265" type="line"/>
    </contour>
  </outline>
</glyph>
<glyph name="four" format="1">
  <advance width="1392"/>
  <unicode hex="0034"/>
  <outline>
    <contour>
      <point x="1187" y="1327" type="line" name="hr00"/>
      <point x="762" y="1327" type="line"/>
      <point x="762" y="0" type="line"/>
      <point x="1187" y="0" type="line"/>
      <point x="1187" y="185" type="line"/>
      <point x="1337" y="185" type="line"/>
      <point x="1337" y="444" type="line"/>
      <point x="1187" y="444" type="line"/>
    </contour>
    <contour>
      <point x="118" y="185" type="line"/>
      <point x="692" y="185" type="line"/>
      <point x="692" y="444" type="line"/>
      <point x="451" y="444" type="line"/>
      <point x="692" y="712" type="line"/>
      <point x="692" y="1237" type="line"/>
      <point x="13" y="431" type="line"/>
    </contour>
  </outline>
</glyph>
<glyph name="five" format="1">
  <advance width="1498"/>
  <unicode hex="0035"/>
  <outline>
    <contour>
      <point x="506" y="1062" type="line" name="hr01"/>
      <point x="1303" y="1062" type="line"/>
      <point x="1303" y="1327" type="line"/>
      <point x="107" y="1327" type="line"/>
      <point x="107" y="594" type="line"/>
      <point x="506" y="594" type="line"/>
    </contour>
    <contour>
      <point x="1099" y="0" type="line"/>
      <point x="1364" y="265" type="line"/>
      <point x="1364" y="576" type="line"/>
      <point x="1099" y="842" type="line"/>
      <point x="576" y="842" type="line"/>
      <point x="576" y="594" type="line"/>
      <point x="922" y="594" type="line"/>
      <point x="922" y="0" type="line"/>
    </contour>
    <contour>
      <point x="550" y="265" type="line"/>
      <point x="550" y="414" type="line" name="hr02"/>
      <point x="107" y="414" type="line"/>
      <point x="107" y="265" type="line"/>
      <point x="373" y="0" type="line" name="hr03"/>
      <point x="852" y="0" type="line"/>
      <point x="852" y="265" type="line"/>
    </contour>
  </outline>
</glyph>
<glyph name="six" format="1">
  <advance width="1499"/>
  <unicode hex="0036"/>
  <outline>
    <contour>
      <point x="550" y="1062" type="line" name="hr01"/>
      <point x="717" y="1062" type="line"/>
      <point x="717" y="1327" type="line"/>
      <point x="374" y="1327" type="line"/>
      <point x="108" y="1062" type="line"/>
      <point x="108" y="265" type="line"/>
      <point x="374" y="0" type="line"/>
      <point x="717" y="0" type="line"/>
      <point x="717" y="265" type="line"/>
      <point x="550" y="265" type="line"/>
    </contour>
    <contour>
      <point x="966" y="576" type="line"/>
      <point x="966" y="265" type="line"/>
      <point x="787" y="265" type="line"/>
      <point x="787" y="0" type="line"/>
      <point x="1126" y="0" type="line"/>
      <point x="1391" y="265" type="line"/>
      <point x="1391" y="581" type="line"/>
      <point x="1131" y="824" type="line"/>
      <point x="618" y="824" type="line"/>
      <point x="618" y="576" type="line"/>
    </contour>
    <contour>
      <point x="949" y="1062" type="line"/>
      <point x="949" y="965" type="line" name="hr02"/>
      <point x="1391" y="965" type="line"/>
      <point x="1391" y="1062" type="line"/>
      <point x="1126" y="1327" type="line" name="hr03"/>
      <point x="787" y="1327" type="line"/>
      <point x="787" y="1062" type="line"/>
    </contour>
  </outline>
</glyph>
<glyph name="seven" format="1">
  <advance width="1299"/>
  <unicode hex="0037"/>
  <outline>
    <contour>
      <point x="346" y="0" type="line" name="hr00"/>
      <point x="814" y="0" type="line"/>
      <point x="1215" y="994" type="line"/>
      <point x="791" y="994" type="line"/>
    </contour>
    <contour>
      <point x="485" y="1062" type="line"/>
      <point x="1247" y="1062" type="line"/>
      <point x="1247" y="1327" type="line"/>
      <point x="183" y="1327" type="line"/>
      <point x="52" y="1194" type="line"/>
      <point x="52" y="860" type="line"/>
      <point x="485" y="860" type="line"/>
    </contour>
  </outline>
</glyph>
<glyph name="eight" format="1">
  <advance width="1541"/>
  <unicode hex="0038"/>
  <outline>
    <contour>
      <point x="546" y="548" type="line" name="hr00"/>
      <point x="738" y="548" type="line"/>
      <point x="738" y="796" type="line"/>
      <point x="546" y="796" type="line"/>
      <point x="546" y="1062" type="line"/>
      <point x="738" y="1062" type="line"/>
      <point x="738" y="1327" type="line"/>
      <point x="374" y="1327" type="line"/>
      <point x="108" y="1062" type="line"/>
      <point x="108" y="802" type="line"/>
      <point x="267" y="672" type="line"/>
      <point x="108" y="541" type="line"/>
      <point x="108" y="265" type="line"/>
      <point x="374" y="0" type="line"/>
      <point x="738" y="0" type="line"/>
      <point x="738" y="265" type="line"/>
      <point x="546" y="265" type="line"/>
    </contour>
    <contour>
      <point x="1013" y="796" type="line"/>
      <point x="808" y="796" type="line"/>
      <point x="808" y="548" type="line"/>
      <point x="1013" y="548" type="line"/>
      <point x="1013" y="265" type="line"/>
      <point x="808" y="265" type="line"/>
      <point x="808" y="0" type="line"/>
      <point x="1168" y="-1" type="line"/>
      <point x="1433" y="264" type="line"/>
      <point x="1433" y="538" type="line"/>
      <point x="1275" y="671" type="line"/>
      <point x="1433" y="804" type="line"/>
      <point x="1433" y="1061" type="line"/>
      <point x="1168" y="1326" type="line"/>
      <point x="808" y="1327" type="line"/>
      <point x="808" y="1062" type="line"/>
      <point x="1013" y="1062" type="line"/>
    </contour>
  </outline>
</glyph>
<glyph name="nine" format="1">
  <advance width="1499"/>
  <unicode hex="0039"/>
  <outline>
    <contour>
      <point x="949" y="265" type="line" name="hr01"/>
      <point x="783" y="265" type="line"/>
      <point x="783" y="0" type="line"/>
      <point x="1126" y="0" type="line"/>
      <point x="1391" y="265" type="line"/>
      <point x="1391" y="1062" type="line"/>
      <point x="1126" y="1327" type="line"/>
      <point x="783" y="1327" type="line"/>
      <point x="783" y="1062" type="line"/>
      <point x="949" y="1062" type="line"/>
    </contour>
    <contour>
      <point x="550" y="762" type="line"/>
      <point x="550" y="1062" type="line"/>
      <point x="715" y="1062" type="line"/>
      <point x="715" y="1327" type="line"/>
      <point x="374" y="1327" type="line"/>
      <point x="108" y="1062" type="line"/>
      <point x="108" y="762" type="line"/>
      <point x="374" y="496" type="line"/>
      <point x="881" y="496" type="line"/>
      <point x="881" y="762" type="line"/>
    </contour>
    <contour>
      <point x="550" y="265" type="line"/>
      <point x="550" y="354" type="line" name="hr02"/>
      <point x="108" y="354" type="line"/>
      <point x="108" y="265" type="line"/>
      <point x="374" y="0" type="line" name="hr03"/>
      <point x="715" y="0" type="line"/>
      <point x="715" y="265" type="line"/>
    </contour>
  </outline>
</glyph>
<glyph name="less" format="1">
  <advance width="1439"/>
  <unicode hex="003C"/>
  <outline>
    <contour>
      <point x="1253" y="802" type="line" name="hr00"/>
      <point x="1253" y="1051" type="line"/>
      <point x="186" y="759" type="line"/>
      <point x="186" y="524" type="line"/>
    </contour>
    <contour>
      <point x="1253" y="186" type="line"/>
      <point x="1253" y="434" type="line"/>
      <point x="692" y="582" type="line"/>
      <point x="240" y="466" type="line"/>
    </contour>
  </outline>
</glyph>
<glyph name="equal" format="1">
  <advance width="1439"/>
  <unicode hex="003D"/>
  <outline>
    <contour>
      <point x="186" y="761" type="line" name="hr00"/>
      <point x="1253" y="761" type="line"/>
      <point x="1253" y="1000" type="line"/>
      <point x="186" y="1000" type="line"/>
    </contour>
    <contour>
      <point x="186" y="204" type="line"/>
      <point x="1253" y="204" type="line"/>
      <point x="1253" y="442" type="line"/>
      <point x="186" y="442" type="line"/>
    </contour>
  </outline>
</glyph>
<glyph name="question" format="1">
  <advance width="1407"/>
  <unicode hex="003F"/>
  <outline>
    <contour>
      <point x="345" y="1327" type="line" name="hr01"/>
      <point x="79" y="1060" type="line"/>
      <point x="79" y="929" type="line"/>
      <point x="522" y="929" type="line"/>
      <point x="522" y="1062" type="line"/>
      <point x="885" y="1062" type="line"/>
      <point x="885" y="832" type="line" name="hr02"/>
      <point x="694" y="832" type="line"/>
      <point x="428" y="566" type="line" name="hr03"/>
      <point x="428" y="442" type="line"/>
      <point x="872" y="442" type="line"/>
      <point x="872" y="566" type="line" name="hr04"/>
      <point x="1062" y="566" type="line"/>
      <point x="1327" y="832" type="line"/>
      <point x="1327" y="1062" type="line"/>
      <point x="1062" y="1327" type="line"/>
    </contour>
    <contour>
      <point x="428" y="0" type="line"/>
      <point x="872" y="0" type="line"/>
      <point x="872" y="309" type="line"/>
      <point x="428" y="309" type="line"/>
    </contour>
  </outline>
</glyph>
<glyph name="at" format="1">
  <advance width="1585"/>
  <unicode hex="0040"/>
  <outline>
    <contour>
      <point x="400" y="-43" type="line" name="hr00"/>
      <point x="785" y="-43" type="line"/>
      <point x="785" y="177" type="line"/>
      <point x="533" y="177" type="line"/>
      <point x="315" y="395" type="line"/>
      <point x="315" y="844" type="line"/>
      <point x="533" y="1062" type="line"/>
      <point x="765" y="1062" type="line"/>
      <point x="765" y="1282" type="line"/>
      <point x="402" y="1282" type="line"/>
      <point x="95" y="973" type="line"/>
      <point x="95" y="264" type="line"/>
    </contour>
    <contour>
      <point x="1271" y="841" type="line"/>
      <point x="1271" y="398" type="line"/>
      <point x="1490" y="398" type="line"/>
      <point x="1490" y="973" type="line"/>
      <point x="1182" y="1282" type="line"/>
      <point x="819" y="1282" type="line"/>
      <point x="819" y="1062" type="line"/>
      <point x="1048" y="1062" type="line"/>
    </contour>
    <contour>
      <point x="839" y="398" type="line"/>
      <point x="839" y="-43" type="line"/>
      <point x="1182" y="-43" type="line"/>
      <point x="1359" y="177" type="line"/>
      <point x="1043" y="178" type="line"/>
      <point x="899" y="321" type="line"/>
      <point x="899" y="841" type="line"/>
      <point x="687" y="841" type="line"/>
      <point x="687" y="398" type="line"/>
    </contour>
  </outline>
</glyph>
<glyph name="A" format="1">
  <advance width="1500"/>
  <unicode hex="0041"/>
  <outline>
    <contour>
      <point x="1044" y="0" type="line" name="hr00"/>
      <point x="1491" y="0" type="line"/>
      <point x="962" y="1327" type="line"/>
      <point x="531" y="1327" type="line"/>
      <point x="886" y="408" type="line"/>
      <point x="646" y="408" type="line"/>
      <point x="554" y="145" type="line"/>
      <point x="988" y="145" type="line"/>
    </contour>
    <contour>
      <point x="679" y="740" type="line"/>
      <point x="483" y="1267" type="line"/>
      <point x="9" y="0" type="line"/>
      <point x="436" y="0" type="line"/>
    </contour>
    <contour>
      <point x="746" y="1530" type="move" name="top"/>
    </contour>
  </outline>
</glyph>
<glyph name="B" format="1">
  <advance width="1495"/>
  <unicode hex="0042"/>
  <outline>
    <contour>
      <point x="957" y="779" type="line" name="hr00"/>
      <point x="629" y="779" type="line"/>
      <point x="629" y="548" type="line"/>
      <point x="957" y="548" type="line"/>
      <point x="957" y="265" type="line"/>
      <point x="629" y="265" type="line"/>
      <point x="629" y="0" type="line"/>
      <point x="1142" y="0" type="line"/>
      <point x="1408" y="265" type="line"/>
      <point x="1408" y="526" type="line"/>
      <point x="1275" y="659" type="line"/>
      <point x="1408" y="792" type="line"/>
      <point x="1408" y="1062" type="line"/>
      <point x="1142" y="1327" type="line"/>
      <point x="629" y="1327" type="line"/>
      <point x="629" y="1062" type="line"/>
      <point x="957" y="1062" type="line"/>
    </contour>
    <contour>
      <point x="117" y="0" type="line"/>
      <point x="559" y="0" type="line"/>
      <point x="559" y="1327" type="line"/>
      <point x="117" y="1327" type="line"/>
    </contour>
    <contour>
      <point x="750" y="1530" type="move" name="top"/>
    </contour>
  </outline>
</glyph>
<glyph name="C" format="1">
  <advance width="1440"/>
  <unicode hex="0043"/>
  <outline>
    <contour>
      <point x="539" y="1327" type="line" name="hr00"/>
      <point x="363" y="1327" type="line"/>
      <point x="97" y="1062" type="line"/>
      <point x="97" y="265" type="line"/>
      <point x="363" y="0" type="line"/>
      <point x="539" y="0" type="line"/>
    </contour>
    <contour>
      <point x="903" y="1062" type="line"/>
      <point x="903" y="795" type="line"/>
      <point x="1345" y="795" type="line"/>
      <point x="1345" y="1062" type="line"/>
      <point x="1080" y="1327" type="line"/>
      <point x="609" y="1327" type="line"/>
      <point x="609" y="1062" type="line"/>
    </contour>
    <contour>
      <point x="1080" y="0" type="line"/>
      <point x="1345" y="265" type="line"/>
      <point x="1345" y="459" type="line"/>
      <point x="903" y="459" type="line"/>
      <point x="903" y="265" type="line"/>
      <point x="609" y="265" type="line"/>
      <point x="609" y="0" type="line"/>
    </contour>
    <contour>
      <point x="748" y="0" type="move" name="btm"/>
    </contour>
    <contour>
      <point x="717" y="1530" type="move" name="top"/>
    </contour>
  </outline>
</glyph>
<glyph name="D" format="1">
  <advance width="1486"/>
  <unicode hex="0044"/>
  <outline>
    <contour>
      <point x="1134" y="0" type="line" name="hr00"/>
      <point x="1400" y="265" type="line"/>
      <point x="1400" y="1062" type="line"/>
      <point x="1134" y="1327" type="line"/>
      <point x="629" y="1327" type="line"/>
      <point x="629" y="1062" type="line"/>
      <point x="957" y="1062" type="line"/>
      <point x="957" y="265" type="line"/>
      <point x="629" y="265" type="line"/>
      <point x="629" y="0" type="line"/>
    </contour>
    <contour>
      <point x="117" y="0" type="line"/>
      <point x="559" y="0" type="line"/>
      <point x="559" y="1327" type="line"/>
      <point x="117" y="1327" type="line"/>
    </contour>
    <contour>
      <point x="727" y="1530" type="move" name="top"/>
    </contour>
  </outline>
</glyph>
<glyph name="E" format="1">
  <advance width="1415"/>
  <unicode hex="0045"/>
  <outline>
    <contour>
      <point x="982" y="545" type="line" name="hr00"/>
      <point x="982" y="801" type="line"/>
      <point x="559" y="801" type="line"/>
      <point x="559" y="1327" type="line"/>
      <point x="117" y="1327" type="line"/>
      <point x="117" y="0" type="line"/>
      <point x="559" y="0" type="line"/>
      <point x="559" y="545" type="line"/>
    </contour>
    <contour>
      <point x="904" y="1070" type="line"/>
      <point x="904" y="943" type="line"/>
      <point x="1320" y="943" type="line"/>
      <point x="1320" y="1327" type="line"/>
      <point x="629" y="1327" type="line"/>
      <point x="629" y="1070" type="line"/>
    </contour>
    <contour>
      <point x="1320" y="0" type="line"/>
      <point x="1320" y="398" type="line"/>
      <point x="878" y="398" type="line"/>
      <point x="878" y="265" type="line"/>
      <point x="629" y="265" type="line"/>
      <point x="629" y="0" type="line"/>
    </contour>
    <contour>
      <point x="735" y="1530" type="move" name="top"/>
    </contour>
  </outline>
</glyph>
<glyph name="F" format="1">
  <advance width="1329"/>
  <unicode hex="0046"/>
  <outline>
    <contour>
      <point x="117" y="0" type="line" name="hr00"/>
      <point x="559" y="0" type="line"/>
      <point x="559" y="473" type="line"/>
      <point x="967" y="473" type="line"/>
      <point x="967" y="734" type="line"/>
      <point x="559" y="734" type="line"/>
      <point x="559" y="1327" type="line"/>
      <point x="117" y="1327" type="line"/>
    </contour>
    <contour>
      <point x="861" y="1062" type="line"/>
      <point x="861" y="887" type="line"/>
      <point x="1303" y="887" type="line"/>
      <point x="1303" y="1327" type="line"/>
      <point x="629" y="1327" type="line"/>
      <point x="629" y="1062" type="line"/>
    </contour>
    <contour>
      <point x="680" y="1530" type="move" name="top"/>
    </contour>
  </outline>
</glyph>
<glyph name="G" format="1">
  <advance width="1495"/>
  <unicode hex="0047"/>
  <outline>
    <contour>
      <point x="557" y="1327" type="line" name="hr00"/>
      <point x="380" y="1327" type="line"/>
      <point x="115" y="1062" type="line"/>
      <point x="115" y="265" type="line"/>
      <point x="380" y="0" type="line"/>
      <point x="936" y="0" type="line"/>
      <point x="936" y="265" type="line"/>
      <point x="557" y="265" type="line"/>
    </contour>
    <contour>
      <point x="791" y="473" type="line"/>
      <point x="1006" y="473" type="line"/>
      <point x="1006" y="0" type="line"/>
      <point x="1398" y="0" type="line"/>
      <point x="1398" y="736" type="line"/>
      <point x="791" y="736" type="line"/>
    </contour>
    <contour>
      <point x="956" y="1062" type="line"/>
      <point x="956" y="929" type="line"/>
      <point x="1398" y="929" type="line"/>
      <point x="1398" y="1062" type="line"/>
      <point x="1166" y="1327" type="line"/>
      <point x="627" y="1327" type="line"/>
      <point x="627" y="1062" type="line"/>
    </contour>
    <contour>
      <point x="791" y="1530" type="move" name="top"/>
    </contour>
  </outline>
</glyph>
<glyph name="H" format="1">
  <advance width="1516"/>
  <unicode hex="0048"/>
  <outline>
    <contour>
      <point x="954" y="805" type="line" name="hr00"/>
      <point x="629" y="805" type="line"/>
      <point x="629" y="539" type="line"/>
      <point x="957" y="539" type="line"/>
      <point x="957" y="0" type="line"/>
      <point x="1400" y="0" type="line"/>
      <point x="1400" y="1327" type="line"/>
      <point x="954" y="1327" type="line"/>
    </contour>
    <contour>
      <point x="559" y="1327" type="line"/>
      <point x="117" y="1327" type="line"/>
      <point x="117" y="0" type="line"/>
      <point x="559" y="0" type="line"/>
    </contour>
    <contour>
      <point x="759" y="1530" type="move" name="top"/>
    </contour>
  </outline>
</glyph>
<glyph name="I" format="1">
  <advance width="902"/>
  <unicode hex="0049"/>
  <outline>
    <contour>
      <point x="97" y="0" type="line" name="hr00"/>
      <point x="805" y="0" type="line"/>
      <point x="805" y="283" type="line"/>
      <point x="672" y="283" type="line"/>
      <point x="672" y="1045" type="line"/>
      <point x="805" y="1045" type="line"/>
      <point x="805" y="1327" type="line"/>
      <point x="97" y="1327" type="line"/>
      <point x="97" y="1045" type="line"/>
      <point x="230" y="1045" type="line"/>
      <point x="230" y="283" type="line"/>
      <point x="97" y="283" type="line"/>
    </contour>
    <contour>
      <point x="451" y="1529" type="move" name="top"/>
    </contour>
  </outline>
</glyph>
<glyph name="J" format="1">
  <advance width="1369"/>
  <unicode hex="004A"/>
  <outline>
    <contour>
      <point x="213" y="1038" type="line" name="hr00"/>
      <point x="823" y="1038" type="line"/>
      <point x="823" y="0" type="line"/>
      <point x="1000" y="0" type="line"/>
      <point x="1265" y="265" type="line"/>
      <point x="1265" y="1327" type="line"/>
      <point x="213" y="1327" type="line"/>
    </contour>
    <contour>
      <point x="511" y="556" type="line"/>
      <point x="52" y="556" type="line"/>
      <point x="52" y="265" type="line"/>
      <point x="318" y="0" type="line"/>
      <point x="753" y="0" type="line"/>
      <point x="753" y="265" type="line"/>
      <point x="511" y="265" type="line"/>
    </contour>
    <contour>
      <point x="765" y="1529" type="move" name="top"/>
    </contour>
  </outline>
</glyph>
<glyph name="K" format="1">
  <advance width="1370"/>
  <unicode hex="004B"/>
  <outline>
    <contour>
      <point x="559" y="0" type="line" name="hr00"/>
      <point x="559" y="1327" type="line"/>
      <point x="117" y="1327" type="line"/>
      <point x="117" y="0" type="line"/>
    </contour>
    <contour>
      <point x="1397" y="1327" type="line"/>
      <point x="937" y="1326" type="line"/>
      <point x="627" y="833" type="line"/>
      <point x="627" y="188" type="line"/>
    </contour>
    <contour>
      <point x="1052" y="702" type="line"/>
      <point x="790" y="309" type="line"/>
      <point x="940" y="0" type="line"/>
      <point x="1418" y="0" type="line"/>
    </contour>
    <contour>
      <point x="736" y="0" type="move" name="btm"/>
    </contour>
    <contour>
      <point x="736" y="1530" type="move" name="top"/>
    </contour>
  </outline>
</glyph>
<glyph name="L" format="1">
  <advance width="1267"/>
  <unicode hex="004C"/>
  <outline>
    <contour>
      <point x="559" y="0" type="line" name="hr00"/>
      <point x="559" y="1327" type="line"/>
      <point x="117" y="1327" type="line"/>
      <point x="117" y="0" type="line"/>
    </contour>
    <contour>
      <point x="1249" y="0" type="line"/>
      <point x="1249" y="433" type="line"/>
      <point x="848" y="433" type="line"/>
      <point x="848" y="265" type="line"/>
      <point x="629" y="265" type="line"/>
      <point x="629" y="0" type="line"/>
    </contour>
    <contour>
      <point x="754" y="0" type="move" name="btm"/>
    </contour>
    <contour>
      <point x="850" y="1360" type="move" name="top"/>
    </contour>
  </outline>
</glyph>
<glyph name="M" format="1">
  <advance width="1848"/>
  <unicode hex="004D"/>
  <outline>
    <contour>
      <point x="905" y="0" type="line" name="hr00"/>
      <point x="1224" y="549" type="line"/>
      <point x="1224" y="1217" type="line"/>
      <point x="944" y="737" type="line"/>
      <point x="588" y="1327" type="line"/>
      <point x="118" y="1327" type="line"/>
    </contour>
    <contour>
      <point x="1731" y="0" type="line"/>
      <point x="1731" y="1327" type="line"/>
      <point x="1289" y="1327" type="line"/>
      <point x="1289" y="0" type="line"/>
    </contour>
    <contour>
      <point x="530" y="0" type="line"/>
      <point x="530" y="511" type="line"/>
      <point x="117" y="1204" type="line"/>
      <point x="117" y="0" type="line"/>
    </contour>
    <contour>
      <point x="927" y="1530" type="move" name="top"/>
    </contour>
  </outline>
</glyph>
<glyph name="N" format="1">
  <advance width="1508"/>
  <unicode hex="004E"/>
  <outline>
    <contour>
      <point x="584" y="1327" type="line" name="hr00"/>
      <point x="117" y="1327" type="line"/>
      <point x="921" y="0" type="line"/>
      <point x="1391" y="0" type="line"/>
    </contour>
    <contour>
      <point x="502" y="0" type="line"/>
      <point x="502" y="570" type="line"/>
      <point x="117" y="1201" type="line"/>
      <point x="117" y="0" type="line"/>
    </contour>
    <contour>
      <point x="1006" y="1327" type="line"/>
      <point x="1006" y="760" type="line"/>
      <point x="1391" y="126" type="line"/>
      <point x="1391" y="1327" type="line"/>
    </contour>
    <contour>
      <point x="740" y="0" type="move" name="btm"/>
    </contour>
    <contour>
      <point x="744" y="1529" type="move" name="top"/>
    </contour>
  </outline>
</glyph>
<glyph name="O" format="1">
  <advance width="1463"/>
  <unicode hex="004F"/>
  <outline>
    <contour>
      <point x="529" y="1058" type="line" name="hr00"/>
      <point x="695" y="1058" type="line"/>
      <point x="695" y="1327" type="line"/>
      <point x="355" y="1327" type="line"/>
      <point x="86" y="1062" type="line"/>
      <point x="86" y="265" type="line"/>
      <point x="355" y="0" type="line"/>
      <point x="695" y="0" type="line"/>
      <point x="695" y="270" type="line"/>
      <point x="529" y="270" type="line"/>
    </contour>
    <contour>
      <point x="934" y="270" type="line"/>
      <point x="765" y="270" type="line"/>
      <point x="765" y="0" type="line"/>
      <point x="1108" y="0" type="line"/>
      <point x="1376" y="265" type="line"/>
      <point x="1376" y="1062" type="line"/>
      <point x="1108" y="1327" type="line"/>
      <point x="765" y="1327" type="line"/>
      <point x="765" y="1058" type="line"/>
      <point x="934" y="1058" type="line"/>
    </contour>
    <contour>
      <point x="731" y="1530" type="move" name="top"/>
    </contour>
  </outline>
</glyph>
<glyph name="P" format="1">
  <advance width="1458"/>
  <unicode hex="0050"/>
  <outline>
    <contour>
      <point x="549" y="0" type="line" name="hr00"/>
      <point x="549" y="1327" type="line"/>
      <point x="115" y="1327" type="line"/>
      <point x="115" y="0" type="line"/>
    </contour>
    <contour>
      <point x="940" y="1062" type="line"/>
      <point x="940" y="607" type="line"/>
      <point x="619" y="607" type="line"/>
      <point x="619" y="341" type="line"/>
      <point x="1115" y="341" type="line"/>
      <point x="1380" y="607" type="line"/>
      <point x="1380" y="1062" type="line"/>
      <point x="1115" y="1327" type="line"/>
      <point x="619" y="1327" type="line"/>
      <point x="619" y="1062" type="line"/>
    </contour>
    <contour>
      <point x="768" y="1530" type="move" name="top"/>
    </contour>
  </outline>
</glyph>
<glyph name="Q" format="1">
  <advance width="1477"/>
  <unicode hex="0051"/>
  <outline>
    <contour>
      <point x="1082" y="-372" type="line" name="hr00"/>
      <point x="1319" y="-142" type="line"/>
      <point x="888" y="265" type="line"/>
      <point x="538" y="265" type="line"/>
      <point x="538" y="1062" type="line"/>
      <point x="703" y="1062" type="line"/>
      <point x="703" y="1327" type="line"/>
      <point x="362" y="1327" type="line"/>
      <point x="96" y="1062" type="line"/>
      <point x="96" y="265" type="line"/>
      <point x="362" y="0" type="line"/>
      <point x="693" y="0" type="line"/>
    </contour>
    <contour>
      <point x="1379" y="1062" type="line"/>
      <point x="1114" y="1327" type="line"/>
      <point x="771" y="1327" type="line"/>
      <point x="771" y="1062" type="line"/>
      <point x="937" y="1062" type="line"/>
      <point x="937" y="304" type="line"/>
      <point x="1188" y="72" type="line"/>
      <point x="1379" y="265" type="line"/>
    </contour>
  </outline>
</glyph>
<glyph name="R" format="1">
  <advance width="1486"/>
  <unicode hex="0052"/>
  <outline>
    <contour>
      <point x="559" y="0" type="line" name="hr00"/>
      <point x="559" y="1327" type="line"/>
      <point x="117" y="1327" type="line"/>
      <point x="117" y="0" type="line"/>
    </contour>
    <contour>
      <point x="961" y="1062" type="line"/>
      <point x="961" y="655" type="line"/>
      <point x="629" y="655" type="line"/>
      <point x="629" y="398" type="line"/>
      <point x="783" y="398" type="line"/>
      <point x="767" y="433" type="line"/>
      <point x="1182" y="488" type="line"/>
      <point x="1196" y="460" type="line"/>
      <point x="1400" y="664" type="line"/>
      <point x="1400" y="1062" type="line"/>
      <point x="1134" y="1327" type="line"/>
      <point x="629" y="1327" type="line"/>
      <point x="629" y="1062" type="line"/>
    </contour>
    <contour>
      <point x="1445" y="0" type="line"/>
      <point x="973" y="0" type="line"/>
      <point x="783" y="398" type="line"/>
      <point x="1134" y="398" type="line"/>
      <point x="1196" y="460" type="line"/>
    </contour>
    <contour>
      <point x="775" y="0" type="move" name="btm"/>
    </contour>
    <contour>
      <point x="780" y="1529" type="move" name="top"/>
    </contour>
  </outline>
</glyph>
<glyph name="S" format="1">
  <advance width="1477"/>
  <unicode hex="0053"/>
  <outline>
    <contour>
      <point x="1115" y="0" type="line" name="hr00"/>
      <point x="1380" y="265" type="line"/>
      <point x="1380" y="590" type="line"/>
      <point x="1123" y="856" type="line"/>
      <point x="513" y="856" type="line"/>
      <point x="513" y="1327" type="line"/>
      <point x="363" y="1327" type="line"/>
      <point x="97" y="1062" type="line"/>
      <point x="97" y="763" type="line"/>
      <point x="363" y="497" type="line"/>
      <point x="937" y="497" type="line"/>
      <point x="937" y="0" type="line"/>
    </contour>
    <contour>
      <point x="937" y="1088" type="line"/>
      <point x="937" y="955" type="line"/>
      <point x="1344" y="955" type="line"/>
      <point x="1344" y="1096" type="line"/>
      <point x="1114" y="1327" type="line"/>
      <point x="583" y="1327" type="line"/>
      <point x="583" y="1088" type="line"/>
    </contour>
    <contour>
      <point x="97" y="265" type="line"/>
      <point x="320" y="0" type="line"/>
      <point x="867" y="0" type="line"/>
      <point x="867" y="240" type="line"/>
      <point x="539" y="240" type="line"/>
      <point x="539" y="398" type="line"/>
      <point x="97" y="398" type="line"/>
    </contour>
    <contour>
      <point x="767" y="0" type="move" name="btm"/>
    </contour>
    <contour>
      <point x="767" y="1536" type="move" name="top"/>
    </contour>
  </outline>
</glyph>
<glyph name="T" format="1">
  <advance width="1256"/>
  <unicode hex="0054"/>
  <outline>
    <contour>
      <point x="398" y="0" type="line" name="hr00"/>
      <point x="858" y="0" type="line"/>
      <point x="858" y="969" type="line"/>
      <point x="398" y="969" type="line"/>
    </contour>
    <contour>
      <point x="52" y="1038" type="line"/>
      <point x="1204" y="1038" type="line"/>
      <point x="1204" y="1327" type="line"/>
      <point x="52" y="1327" type="line"/>
    </contour>
    <contour>
      <point x="624" y="1529" type="move" name="top"/>
    </contour>
  </outline>
</glyph>
<glyph name="U" format="1">
  <advance width="1495"/>
  <unicode hex="0055"/>
  <outline>
    <contour>
      <point x="1388" y="1327" type="line" name="hr00"/>
      <point x="946" y="1327" type="line"/>
      <point x="946" y="265" type="line"/>
      <point x="782" y="265" type="line"/>
      <point x="782" y="0" type="line"/>
      <point x="1123" y="0" type="line"/>
      <point x="1388" y="265" type="line"/>
    </contour>
    <contour>
      <point x="549" y="1327" type="line"/>
      <point x="106" y="1327" type="line"/>
      <point x="106" y="265" type="line"/>
      <point x="372" y="0" type="line"/>
      <point x="712" y="0" type="line"/>
      <point x="712" y="265" type="line"/>
      <point x="549" y="265" type="line"/>
    </contour>
    <contour>
      <point x="747" y="1529" type="move" name="top"/>
    </contour>
  </outline>
</glyph>
<glyph name="V" format="1">
  <advance width="1371"/>
  <unicode hex="0056"/>
  <outline>
    <contour>
      <point x="425" y="1327" type="line" name="hr00"/>
      <point x="-26" y="1327" type="line"/>
      <point x="454" y="0" type="line"/>
      <point x="884" y="0" type="line"/>
    </contour>
    <contour>
      <point x="739" y="624" type="line"/>
      <point x="938" y="40" type="line"/>
      <point x="1397" y="1327" type="line"/>
      <point x="953" y="1327" type="line"/>
    </contour>
  </outline>
</glyph>
<glyph name="W" format="1">
  <advance width="1928"/>
  <unicode hex="0057"/>
  <outline>
    <contour>
      <point x="414" y="1327" type="line" name="hr00"/>
      <point x="-26" y="1327" type="line"/>
      <point x="371" y="0" type="line"/>
      <point x="772" y="0" type="line"/>
      <point x="915" y="525" type="line"/>
      <point x="742" y="1155" type="line"/>
      <point x="609" y="598" type="line"/>
    </contour>
    <contour>
      <point x="1207" y="1327" type="line"/>
      <point x="761" y="1327" type="line"/>
      <point x="1125" y="0" type="line"/>
      <point x="1547" y="0" type="line"/>
    </contour>
    <contour>
      <point x="1414" y="776" type="line"/>
      <point x="1594" y="69" type="line"/>
      <point x="1954" y="1327" type="line"/>
      <point x="1551" y="1327" type="line"/>
    </contour>
    <contour>
      <point x="1009" y="1530" type="move" name="top"/>
    </contour>
  </outline>
</glyph>
<glyph name="X" format="1">
  <advance width="1342"/>
  <unicode hex="0058"/>
  <outline>
    <contour>
      <point x="1349" y="1327" type="line" name="hr00"/>
      <point x="875" y="1327" type="line"/>
      <point x="720" y="1072" type="line"/>
      <point x="956" y="727" type="line"/>
    </contour>
    <contour>
      <point x="479" y="0" type="line"/>
      <point x="634" y="258" type="line"/>
      <point x="397" y="618" type="line"/>
      <point x="-26" y="0" type="line"/>
    </contour>
    <contour>
      <point x="478" y="1327" type="line"/>
      <point x="1" y="1327" type="line"/>
      <point x="886" y="0" type="line"/>
      <point x="1368" y="0" type="line"/>
    </contour>
  </outline>
</glyph>
<glyph name="Y" format="1">
  <advance width="1297"/>
  <unicode hex="0059"/>
  <outline>
    <contour>
      <point x="424" y="0" type="line" name="hr00"/>
      <point x="867" y="0" type="line"/>
      <point x="867" y="391" type="line"/>
      <point x="408" y="1327" type="line"/>
      <point x="-26" y="1327" type="line"/>
      <point x="424" y="422" type="line"/>
    </contour>
    <contour>
      <point x="1323" y="1327" type="line"/>
      <point x="898" y="1327" type="line"/>
      <point x="680" y="920" type="line"/>
      <point x="895" y="484" type="line"/>
    </contour>
    <contour>
      <point x="648" y="1529" type="move" name="top"/>
    </contour>
  </outline>
</glyph>
<glyph name="Z" format="1">
  <advance width="1271"/>
  <unicode hex="005A"/>
  <outline>
    <contour>
      <point x="52" y="0" type="line" name="hr00"/>
      <point x="343" y="0" type="line"/>
      <point x="1219" y="1070" type="line"/>
      <point x="1219" y="1327" type="line"/>
      <point x="919" y="1327" type="line"/>
      <point x="52" y="248" type="line"/>
    </contour>
    <contour>
      <point x="1201" y="291" type="line"/>
      <point x="684" y="291" type="line"/>
      <point x="432" y="0" type="line"/>
      <point x="1201" y="0" type="line"/>
    </contour>
    <contour>
      <point x="79" y="1037" type="line"/>
      <point x="581" y="1037" type="line"/>
      <point x="832" y="1327" type="line"/>
      <point x="79" y="1327" type="line"/>
    </contour>
    <contour>
      <point x="648" y="1530" type="move" name="top"/>
    </contour>
  </outline>
</glyph>
<glyph name="bracketleft" format="1">
  <advance width="978"/>
  <unicode hex="005B"/>
  <outline>
    <contour>
      <point x="672" y="1204" type="line" name="hr00"/>
      <point x="836" y="1204" type="line"/>
      <point x="836" y="1469" type="line"/>
      <point x="274" y="1469" type="line"/>
      <point x="274" y="-142" type="line"/>
      <point x="836" y="-142" type="line"/>
      <point x="836" y="124" type="line"/>
      <point x="672" y="124" type="line"/>
    </contour>
  </outline>
</glyph>
<glyph name="asciicircum" format="1">
  <advance width="1290"/>
  <unicode hex="005E"/>
  <outline>
    <contour>
      <point x="850" y="100" type="line" name="hr00"/>
      <point x="1116" y="100" type="line"/>
      <point x="770" y="1167" type="line"/>
      <point x="534" y="1167" type="line"/>
    </contour>
    <contour>
      <point x="174" y="100" type="line"/>
      <point x="440" y="100" type="line"/>
      <point x="598" y="681" type="line"/>
      <point x="476" y="1113" type="line"/>
    </contour>
  </outline>
</glyph>
<glyph name="underscore" format="1">
  <advance width="1331"/>
  <unicode hex="005F"/>
  <outline>
    <contour>
      <point x="-86" y="-393" type="line" name="hr00"/>
      <point x="1417" y="-393" type="line"/>
      <point x="1417" y="-200" type="line"/>
      <point x="-86" y="-200" type="line"/>
    </contour>
  </outline>
</glyph>
<glyph name="grave" format="1">
  <advance width="1098"/>
  <unicode hex="0060"/>
  <outline>
    <contour>
      <point x="305" y="1607" type="line" name="hr00"/>
      <point x="121" y="1522" type="line"/>
      <point x="175" y="1311" type="line"/>
      <point x="730" y="1144" type="line"/>
      <point x="791" y="1291" type="line"/>
    </contour>
    <contour>
      <point x="498" y="1223" type="move" name="_top"/>
    </contour>
  </outline>
</glyph>
<glyph name="a" format="1">
  <advance width="1331"/>
  <unicode hex="0061"/>
  <outline>
    <contour>
      <point x="1236" y="0" type="line" name="hr00"/>
      <point x="1236" y="797" type="line"/>
      <point x="971" y="1062" type="line"/>
      <point x="308" y="1062" type="line"/>
      <point x="175" y="929" type="line"/>
      <point x="175" y="797" type="line"/>
      <point x="804" y="797" type="line"/>
      <point x="804" y="0" type="line"/>
    </contour>
    <contour>
      <point x="264" y="618" type="line"/>
      <point x="86" y="441" type="line"/>
      <point x="86" y="175" type="line"/>
      <point x="264" y="0" type="line"/>
      <point x="602" y="0" type="line"/>
      <point x="734" y="131" type="line"/>
      <point x="734" y="248" type="line"/>
      <point x="506" y="248" type="line"/>
      <point x="506" y="434" type="line"/>
      <point x="734" y="434" type="line"/>
      <point x="734" y="618" type="line"/>
    </contour>
    <contour>
      <point x="666" y="1223" type="move" name="top"/>
    </contour>
  </outline>
</glyph>
<glyph name="b" format="1">
  <advance width="1340"/>
  <unicode hex="0062"/>
  <outline>
    <contour>
      <point x="104" y="1467" type="line" name="hr00"/>
      <point x="104" y="0" type="line"/>
      <point x="546" y="0" type="line"/>
      <point x="546" y="1467" type="line"/>
    </contour>
    <contour>
      <point x="814" y="248" type="line"/>
      <point x="616" y="248" type="line"/>
      <point x="616" y="0" type="line"/>
      <point x="988" y="0" type="line"/>
      <point x="1254" y="265" type="line"/>
      <point x="1254" y="797" type="line"/>
      <point x="988" y="1062" type="line"/>
      <point x="746" y="1062" type="line"/>
      <point x="616" y="931" type="line"/>
      <point x="616" y="797" type="line"/>
      <point x="814" y="797" type="line"/>
    </contour>
    <contour>
      <point x="981" y="1223" type="move" name="top"/>
    </contour>
  </outline>
</glyph>
<glyph name="c" format="1">
  <advance width="1323"/>
  <unicode hex="0063"/>
  <outline>
    <contour>
      <point x="537" y="1062" type="line" name="hr01"/>
      <point x="360" y="1062" type="line"/>
      <point x="95" y="797" type="line"/>
      <point x="95" y="265" type="line"/>
      <point x="360" y="0" type="line"/>
      <point x="537" y="0" type="line"/>
    </contour>
    <contour>
      <point x="803" y="797" type="line"/>
      <point x="803" y="638" type="line" name="hr02"/>
      <point x="1245" y="638" type="line"/>
      <point x="1245" y="797" type="line"/>
      <point x="980" y="1062" type="line" name="hr03"/>
      <point x="607" y="1062" type="line"/>
      <point x="607" y="797" type="line"/>
    </contour>
    <contour>
      <point x="980" y="0" type="line"/>
      <point x="1245" y="265" type="line" name="hr04"/>
      <point x="1245" y="381" type="line"/>
      <point x="803" y="381" type="line"/>
      <point x="803" y="248" type="line" name="hr05"/>
      <point x="607" y="248" type="line"/>
      <point x="607" y="0" type="line"/>
    </contour>
    <contour>
      <point x="605" y="0" type="move" name="_btm"/>
    </contour>
    <contour>
      <point x="680" y="1223" type="move" name="top"/>
    </contour>
  </outline>
</glyph>
<glyph name="d" format="1">
  <advance width="1366"/>
  <unicode hex="0064"/>
  <outline>
    <contour>
      <point x="820" y="1467" type="line" name="hr00"/>
      <point x="820" y="0" type="line"/>
      <point x="1262" y="0" type="line"/>
      <point x="1262" y="1467" type="line"/>
    </contour>
    <contour>
      <point x="537" y="797" type="line"/>
      <point x="750" y="797" type="line"/>
      <point x="750" y="1062" type="line"/>
      <point x="334" y="1062" type="line"/>
      <point x="95" y="823" type="line"/>
      <point x="95" y="239" type="line"/>
      <point x="334" y="0" type="line"/>
      <point x="645" y="0" type="line"/>
      <point x="750" y="105" type="line"/>
      <point x="750" y="248" type="line"/>
      <point x="537" y="248" type="line"/>
    </contour>
    <contour>
      <point x="338" y="1223" type="move" name="top"/>
    </contour>
  </outline>
</glyph>
<glyph name="e" format="1">
  <advance width="1331"/>
  <unicode hex="0065"/>
  <outline>
    <contour>
      <point x="537" y="1062" type="line" name="hr00"/>
      <point x="360" y="1062" type="line"/>
      <point x="95" y="797" type="line"/>
      <point x="95" y="265" type="line"/>
      <point x="360" y="0" type="line"/>
      <point x="537" y="0" type="line"/>
    </contour>
    <contour>
      <point x="1247" y="426" type="line"/>
      <point x="1247" y="797" type="line"/>
      <point x="982" y="1062" type="line"/>
      <point x="607" y="1062" type="line"/>
      <point x="607" y="797" type="line"/>
      <point x="840" y="797" type="line"/>
      <point x="840" y="611" type="line"/>
      <point x="607" y="611" type="line"/>
      <point x="607" y="426" type="line"/>
    </contour>
    <contour>
      <point x="1069" y="0" type="line"/>
      <point x="1201" y="133" type="line"/>
      <point x="1201" y="248" type="line"/>
      <point x="607" y="248" type="line"/>
      <point x="607" y="0" type="line"/>
    </contour>
    <contour>
      <point x="668" y="1223" type="move" name="top"/>
    </contour>
  </outline>
</glyph>
<glyph name="f" format="1">
  <advance width="907"/>
  <unicode hex="0066"/>
  <outline>
    <contour>
      <point x="906" y="1202" type="line" name="hr00"/>
      <point x="906" y="1467" type="line"/>
      <point x="410" y="1467" type="line"/>
      <point x="143" y="1219" type="line"/>
      <point x="143" y="1062" type="line"/>
      <point x="38" y="1062" type="line"/>
      <point x="38" y="797" type="line"/>
      <point x="143" y="797" type="line"/>
      <point x="143" y="0" type="line"/>
      <point x="586" y="0" type="line"/>
      <point x="586" y="1202" type="line"/>
    </contour>
    <contour>
      <point x="906" y="797" type="line"/>
      <point x="906" y="1062" type="line"/>
      <point x="656" y="1062" type="line"/>
      <point x="653" y="797" type="line"/>
    </contour>
    <contour>
      <point x="379" y="1493" type="move" name="top"/>
    </contour>
  </outline>
</glyph>
<glyph name="g" format="1">
  <advance width="1340"/>
  <unicode hex="0067"/>
  <outline>
    <contour>
      <point x="803" y="-140" type="line" name="hr00"/>
      <point x="264" y="-140" type="line"/>
      <point x="264" y="-238" type="line"/>
      <point x="397" y="-372" type="line"/>
      <point x="980" y="-372" type="line"/>
      <point x="1245" y="-105" type="line"/>
      <point x="1245" y="797" type="line"/>
      <point x="980" y="1062" type="line"/>
      <point x="607" y="1062" type="line"/>
      <point x="607" y="797" type="line"/>
      <point x="803" y="797" type="line"/>
    </contour>
    <contour>
      <point x="537" y="248" type="line"/>
      <point x="537" y="1062" type="line"/>
      <point x="360" y="1062" type="line"/>
      <point x="95" y="797" type="line"/>
      <point x="95" y="265" type="line"/>
      <point x="360" y="0" type="line"/>
      <point x="601" y="0" type="line"/>
      <point x="733" y="131" type="line"/>
      <point x="733" y="248" type="line"/>
    </contour>
    <contour>
      <point x="699" y="1223" type="move" name="top"/>
    </contour>
  </outline>
</glyph>
<glyph name="i" format="1">
  <advance width="653"/>
  <unicode hex="0069"/>
  <outline>
    <contour>
      <point x="105" y="0" type="line" name="hr00"/>
      <point x="548" y="0" type="line"/>
      <point x="548" y="1062" type="line"/>
      <point x="105" y="1062" type="line"/>
    </contour>
    <contour>
      <point x="105" y="1194" type="line"/>
      <point x="548" y="1194" type="line"/>
      <point x="548" y="1476" type="line"/>
      <point x="105" y="1476" type="line"/>
    </contour>
  </outline>
</glyph>
<glyph name="j" format="1">
  <advance width="653"/>
  <unicode hex="006A"/>
  <outline>
    <contour>
      <point x="-100" y="-354" type="line" name="hr00"/>
      <point x="282" y="-354" type="line"/>
      <point x="548" y="-88" type="line"/>
      <point x="548" y="1062" type="line"/>
      <point x="105" y="1062" type="line"/>
      <point x="105" y="-88" type="line"/>
      <point x="-100" y="-88" type="line"/>
    </contour>
    <contour>
      <point x="105" y="1194" type="line"/>
      <point x="547" y="1194" type="line"/>
      <point x="547" y="1476" type="line"/>
      <point x="105" y="1476" type="line"/>
    </contour>
  </outline>
</glyph>
<glyph name="k" format="1">
  <advance width="1312"/>
  <unicode hex="006B"/>
  <outline>
    <contour>
      <point x="546" y="1467" type="line" name="hr00"/>
      <point x="104" y="1467" type="line"/>
      <point x="104" y="0" type="line"/>
      <point x="546" y="0" type="line"/>
    </contour>
    <contour>
      <point x="1276" y="1061" type="line"/>
      <point x="819" y="1060" type="line"/>
      <point x="615" y="756" type="line"/>
      <point x="615" y="150" type="line"/>
    </contour>
    <contour>
      <point x="1007" y="566" type="line"/>
      <point x="746" y="214" type="line"/>
      <point x="819" y="0" type="line"/>
      <point x="1299" y="0" type="line"/>
    </contour>
    <contour>
      <point x="664" y="1" type="move" name="btm"/>
    </contour>
  </outline>
</glyph>
<glyph name="l" format="1">
  <advance width="753"/>
  <unicode hex="006C"/>
  <outline>
    <contour>
      <point x="744" y="265" type="line" name="hr00"/>
      <point x="546" y="265" type="line"/>
      <point x="546" y="1467" type="line"/>
      <point x="104" y="1467" type="line"/>
      <point x="104" y="248" type="line"/>
      <point x="352" y="0" type="line"/>
      <point x="744" y="0" type="line"/>
    </contour>
    <contour>
      <point x="352" y="0" type="move" name="btm"/>
    </contour>
    <contour>
      <point x="324" y="1456" type="move" name="top"/>
    </contour>
  </outline>
</glyph>
<glyph name="m" format="1">
  <advance width="2043"/>
  <unicode hex="006D"/>
  <outline>
    <contour>
      <point x="562" y="0" type="line" name="hr00"/>
      <point x="562" y="1062" type="line"/>
      <point x="119" y="1062" type="line"/>
      <point x="119" y="0" type="line"/>
    </contour>
    <contour>
      <point x="812" y="0" type="line"/>
      <point x="1255" y="0" type="line"/>
      <point x="1255" y="920" type="line"/>
      <point x="1113" y="1062" type="line"/>
      <point x="771" y="1062" type="line"/>
      <point x="632" y="922" type="line"/>
      <point x="632" y="797" type="line"/>
      <point x="812" y="797" type="line"/>
    </contour>
    <contour>
      <point x="1505" y="0" type="line"/>
      <point x="1947" y="0" type="line"/>
      <point x="1947" y="844" type="line"/>
      <point x="1731" y="1062" type="line"/>
      <point x="1461" y="1062" type="line"/>
      <point x="1325" y="920" type="line"/>
      <point x="1325" y="797" type="line"/>
      <point x="1505" y="797" type="line"/>
    </contour>
    <contour>
      <point x="1041" y="1223" type="move" name="top"/>
    </contour>
  </outline>
</glyph>
<glyph name="n" format="1">
  <advance width="1356"/>
  <unicode hex="006E"/>
  <outline>
    <contour>
      <point x="550" y="0" type="line" name="hr00"/>
      <point x="550" y="1062" type="line"/>
      <point x="104" y="1062" type="line"/>
      <point x="104" y="0" type="line"/>
    </contour>
    <contour>
      <point x="812" y="0" type="line"/>
      <point x="1255" y="0" type="line"/>
      <point x="1255" y="823" type="line"/>
      <point x="1016" y="1062" type="line"/>
      <point x="770" y="1062" type="line"/>
      <point x="622" y="913" type="line"/>
      <point x="622" y="797" type="line"/>
      <point x="812" y="797" type="line"/>
    </contour>
    <contour>
      <point x="680" y="0" type="move" name="btm"/>
    </contour>
    <contour>
      <point x="678" y="1223" type="move" name="top"/>
    </contour>
  </outline>
</glyph>
<glyph name="o" format="1">
  <advance width="1383"/>
  <unicode hex="006F"/>
  <outline>
    <contour>
      <point x="1288" y="797" type="line" name="hr00"/>
      <point x="1023" y="1062" type="line"/>
      <point x="727" y="1062" type="line"/>
      <point x="727" y="797" type="line"/>
      <point x="837" y="797" type="line"/>
      <point x="837" y="248" type="line"/>
      <point x="727" y="248" type="line"/>
      <point x="727" y="0" type="line"/>
      <point x="1023" y="0" type="line"/>
      <point x="1288" y="265" type="line"/>
    </contour>
    <contour>
      <point x="542" y="797" type="line"/>
      <point x="657" y="797" type="line"/>
      <point x="657" y="1062" type="line"/>
      <point x="360" y="1062" type="line"/>
      <point x="95" y="797" type="line"/>
      <point x="95" y="265" type="line"/>
      <point x="360" y="0" type="line"/>
      <point x="657" y="0" type="line"/>
      <point x="657" y="248" type="line"/>
      <point x="542" y="248" type="line"/>
    </contour>
    <contour>
      <point x="691" y="1223" type="move" name="top"/>
    </contour>
  </outline>
</glyph>
<glyph name="p" format="1">
  <advance width="1349"/>
  <unicode hex="0070"/>
  <outline>
    <contour>
      <point x="546" y="-354" type="line" name="hr00"/>
      <point x="546" y="1062" type="line"/>
      <point x="104" y="1062" type="line"/>
      <point x="104" y="-354" type="line"/>
    </contour>
    <contour>
      <point x="811" y="248" type="line"/>
      <point x="616" y="248" type="line"/>
      <point x="616" y="0" type="line"/>
      <point x="988" y="0" type="line"/>
      <point x="1254" y="265" type="line"/>
      <point x="1254" y="797" type="line"/>
      <point x="988" y="1062" type="line"/>
      <point x="746" y="1062" type="line"/>
      <point x="616" y="931" type="line"/>
      <point x="616" y="797" type="line"/>
      <point x="811" y="797" type="line"/>
    </contour>
    <contour>
      <point x="837" y="1223" type="move" name="top"/>
    </contour>
  </outline>
</glyph>
<glyph name="q" format="1">
  <advance width="1350"/>
  <unicode hex="0071"/>
  <outline>
    <contour>
      <point x="1246" y="-354" type="line" name="hr00"/>
      <point x="1246" y="797" type="line"/>
      <point x="980" y="1062" type="line"/>
      <point x="607" y="1062" type="line"/>
      <point x="607" y="797" type="line"/>
      <point x="804" y="797" type="line"/>
      <point x="804" y="-221" type="line"/>
      <point x="934" y="-354" type="line"/>
    </contour>
    <contour>
      <point x="537" y="1062" type="line"/>
      <point x="361" y="1062" type="line"/>
      <point x="95" y="797" type="line"/>
      <point x="95" y="265" type="line"/>
      <point x="361" y="0" type="line"/>
      <point x="602" y="0" type="line"/>
      <point x="734" y="131" type="line"/>
      <point x="734" y="248" type="line"/>
      <point x="537" y="248" type="line"/>
    </contour>
  </outline>
</glyph>
<glyph name="r" format="1">
  <advance width="1280"/>
  <unicode hex="0072"/>
  <outline>
    <contour>
      <point x="805" y="539" type="line" name="hr00"/>
      <point x="1248" y="539" type="line"/>
      <point x="1248" y="814" type="line"/>
      <point x="1033" y="1062" type="line"/>
      <point x="765" y="1062" type="line"/>
      <point x="617" y="913" type="line"/>
      <point x="617" y="797" type="line"/>
      <point x="805" y="797" type="line"/>
    </contour>
    <contour>
      <point x="546" y="0" type="line"/>
      <point x="546" y="1062" type="line"/>
      <point x="104" y="1062" type="line"/>
      <point x="104" y="0" type="line"/>
    </contour>
    <contour>
      <point x="339" y="0" type="move" name="btm"/>
    </contour>
    <contour>
      <point x="653" y="1223" type="move" name="top"/>
    </contour>
  </outline>
</glyph>
<glyph name="s" format="1">
  <advance width="1315"/>
  <unicode hex="0073"/>
  <outline>
    <contour>
      <point x="96" y="824" type="line" name="hr00"/>
      <point x="96" y="622" type="line"/>
      <point x="326" y="401" type="line"/>
      <point x="804" y="401" type="line"/>
      <point x="804" y="0" type="line"/>
      <point x="999" y="0" type="line"/>
      <point x="1246" y="248" type="line"/>
      <point x="1246" y="455" type="line"/>
      <point x="1016" y="687" type="line"/>
      <point x="512" y="687" type="line"/>
      <point x="512" y="1062" type="line"/>
      <point x="335" y="1062" type="line"/>
    </contour>
    <contour>
      <point x="538" y="304" type="line"/>
      <point x="95" y="304" type="line"/>
      <point x="95" y="219" type="line"/>
      <point x="279" y="1" type="line"/>
      <point x="734" y="0" type="line"/>
      <point x="734" y="195" type="line"/>
      <point x="538" y="195" type="line"/>
    </contour>
    <contour>
      <point x="804" y="784" type="line"/>
      <point x="1210" y="784" type="line"/>
      <point x="1210" y="904" type="line"/>
      <point x="1052" y="1062" type="line"/>
      <point x="582" y="1062" type="line"/>
      <point x="582" y="867" type="line"/>
      <point x="804" y="867" type="line"/>
    </contour>
    <contour>
      <point x="679" y="0" type="move" name="btm"/>
    </contour>
    <contour>
      <point x="680" y="1223" type="move" name="top"/>
    </contour>
  </outline>
</glyph>
<glyph name="t" format="1">
  <advance width="915"/>
  <unicode hex="0074"/>
  <outline>
    <contour>
      <point x="558" y="1327" type="line" name="hr00"/>
      <point x="116" y="1177" type="line"/>
      <point x="116" y="1062" type="line"/>
      <point x="28" y="1062" type="line"/>
      <point x="28" y="797" type="line"/>
      <point x="116" y="797" type="line"/>
      <point x="116" y="265" type="line"/>
      <point x="382" y="0" type="line"/>
      <point x="850" y="0" type="line"/>
      <point x="850" y="265" type="line"/>
      <point x="558" y="265" type="line"/>
    </contour>
    <contour>
      <point x="866" y="797" type="line"/>
      <point x="866" y="1062" type="line"/>
      <point x="628" y="1062" type="line"/>
      <point x="628" y="797" type="line"/>
    </contour>
    <contour>
      <point x="433" y="0" type="move" name="btm"/>
    </contour>
    <contour>
      <point x="338" y="1327" type="move" name="top"/>
    </contour>
  </outline>
</glyph>
<glyph name="u" format="1">
  <advance width="1350"/>
  <unicode hex="0075"/>
  <outline>
    <contour>
      <point x="804" y="1062" type="line" name="hr00"/>
      <point x="804" y="0" type="line"/>
      <point x="1246" y="0" type="line"/>
      <point x="1246" y="1062" type="line"/>
    </contour>
    <contour>
      <point x="537" y="1062" type="line"/>
      <point x="95" y="1062" type="line"/>
      <point x="95" y="265" type="line"/>
      <point x="361" y="0" type="line"/>
      <point x="606" y="0" type="line"/>
      <point x="734" y="133" type="line"/>
      <point x="734" y="265" type="line"/>
      <point x="537" y="265" type="line"/>
    </contour>
    <contour>
      <point x="670" y="1223" type="move" name="top"/>
    </contour>
  </outline>
</glyph>
<glyph name="v" format="1">
  <advance width="1192"/>
  <unicode hex="0076"/>
  <outline>
    <contour>
      <point x="383" y="0" type="line" name="hr00"/>
      <point x="803" y="0" type="line"/>
      <point x="425" y="1062" type="line"/>
      <point x="-14" y="1062" type="line"/>
    </contour>
    <contour>
      <point x="1206" y="1062" type="line"/>
      <point x="793" y="1062" type="line"/>
      <point x="650" y="621" type="line"/>
      <point x="848" y="59" type="line"/>
    </contour>
  </outline>
</glyph>
<glyph name="w" format="1">
  <advance width="1846"/>
  <unicode hex="0077"/>
  <outline>
    <contour>
      <point x="367" y="0" type="line" name="hr00"/>
      <point x="736" y="0" type="line"/>
      <point x="737" y="-1" type="line"/>
      <point x="863" y="403" type="line"/>
      <point x="704" y="892" type="line"/>
      <point x="581" y="509" type="line"/>
      <point x="408" y="1062" type="line"/>
      <point x="-14" y="1062" type="line"/>
    </contour>
    <contour>
      <point x="1068" y="0" type="line"/>
      <point x="1469" y="0" type="line"/>
      <point x="1127" y="1062" type="line"/>
      <point x="710" y="1062" type="line"/>
    </contour>
    <contour>
      <point x="1860" y="1062" type="line"/>
      <point x="1446" y="1062" type="line"/>
      <point x="1327" y="638" type="line"/>
      <point x="1513" y="66" type="line"/>
    </contour>
    <contour>
      <point x="921" y="1223" type="move" name="top"/>
    </contour>
  </outline>
</glyph>
<glyph name="x" format="1">
  <advance width="1140"/>
  <unicode hex="0078"/>
  <outline>
    <contour>
      <point x="-14" y="1062" type="line" name="hr00"/>
      <point x="694" y="0" type="line"/>
      <point x="1153" y="0" type="line"/>
      <point x="446" y="1062" type="line"/>
    </contour>
    <contour>
      <point x="847" y="572" type="line"/>
      <point x="1153" y="1062" type="line"/>
      <point x="694" y="1062" type="line"/>
      <point x="619" y="915" type="line"/>
    </contour>
    <contour>
      <point x="518" y="149" type="line"/>
      <point x="281" y="506" type="line"/>
      <point x="-14" y="0" type="line"/>
      <point x="446" y="0" type="line"/>
    </contour>
  </outline>
</glyph>
<glyph name="y" format="1">
  <advance width="1221"/>
  <unicode hex="0079"/>
  <outline>
    <contour>
      <point x="1235" y="1062" type="line" name="hr00"/>
      <point x="810" y="1062" type="line"/>
      <point x="272" y="-370" type="line"/>
      <point x="696" y="-370" type="line"/>
    </contour>
    <contour>
      <point x="378" y="89" type="line"/>
      <point x="576" y="630" type="line"/>
      <point x="427" y="1062" type="line"/>
      <point x="-14" y="1062" type="line"/>
    </contour>
    <contour>
      <point x="620" y="1223" type="move" name="top"/>
    </contour>
  </outline>
</glyph>
<glyph name="z" format="1">
  <advance width="1181"/>
  <unicode hex="007A"/>
  <outline>
    <contour>
      <point x="1091" y="265" type="line" name="hr00"/>
      <point x="708" y="265" type="line"/>
      <point x="473" y="0" type="line"/>
      <point x="1091" y="0" type="line"/>
    </contour>
    <contour>
      <point x="105" y="797" type="line"/>
      <point x="473" y="797" type="line"/>
      <point x="702" y="1062" type="line"/>
      <point x="105" y="1062" type="line"/>
    </contour>
    <contour>
      <point x="95" y="0" type="line"/>
      <point x="391" y="0" type="line"/>
      <point x="1090" y="797" type="line"/>
      <point x="1090" y="1062" type="line"/>
      <point x="785" y="1062" type="line"/>
      <point x="95" y="257" type="line"/>
    </contour>
    <contour>
      <point x="634" y="1223" type="move" name="top"/>
    </contour>
  </outline>
</glyph>
<glyph name="braceleft" format="1">
  <advance width="978"/>
  <unicode hex="007B"/>
  <outline>
    <contour>
      <point x="664" y="1204" type="line" name="hr00"/>
      <point x="828" y="1204" type="line"/>
      <point x="828" y="1469" type="line"/>
      <point x="495" y="1469" type="line"/>
      <point x="230" y="1204" type="line"/>
      <point x="230" y="817" type="line"/>
      <point x="87" y="664" type="line"/>
      <point x="230" y="510" type="line"/>
      <point x="230" y="124" type="line"/>
      <point x="495" y="-142" type="line"/>
      <point x="828" y="-142" type="line"/>
      <point x="828" y="124" type="line"/>
      <point x="664" y="124" type="line"/>
      <point x="664" y="510" type="line"/>
      <point x="520" y="684" type="line"/>
      <point x="664" y="817" type="line"/>
    </contour>
  </outline>
</glyph>
<glyph name="bar" format="1">
  <advance width="700"/>
  <unicode hex="007C"/>
  <outline>
    <contour>
      <point x="470" y="-196" type="line" name="hr00"/>
      <point x="470" y="1418" type="line"/>
      <point x="230" y="1418" type="line"/>
      <point x="230" y="-196" type="line"/>
    </contour>
  </outline>
</glyph>
<glyph name="asciitilde" format="1">
  <advance width="1491"/>
  <unicode hex="007E"/>
  <outline>
    <contour>
      <point x="1387" y="628" type="line" name="hr01"/>
      <point x="1299" y="718" type="line"/>
      <point x="1091" y="569" type="line"/>
      <point x="988" y="569" type="line"/>
      <point x="750" y="807" type="line" name="hr02"/>
      <point x="350" y="807" type="line"/>
      <point x="113" y="513" type="line"/>
      <point x="200" y="425" type="line"/>
      <point x="409" y="569" type="line"/>
      <point x="517" y="569" type="line"/>
      <point x="750" y="336" type="line" name="hr03"/>
      <point x="1153" y="336" type="line"/>
    </contour>
  </outline>
</glyph>
<glyph name="cent" format="1">
  <advance width="1610"/>
  <unicode hex="00A2"/>
  <outline>
    <contour>
      <point x="605" y="-17" type="line" name="hr01"/>
      <point x="870" y="-17" type="line"/>
      <point x="870" y="398" type="line" name="hr02"/>
      <point x="672" y="398" type="line" name="hr03"/>
      <point x="672" y="1194" type="line"/>
      <point x="495" y="1194" type="line"/>
      <point x="230" y="929" type="line"/>
      <point x="230" y="398" type="line"/>
      <point x="495" y="133" type="line"/>
      <point x="605" y="133" type="line" name="hr04"/>
    </contour>
    <contour>
      <point x="937" y="929" type="line"/>
      <point x="937" y="797" type="line" name="hr05"/>
      <point x="1380" y="797" type="line"/>
      <point x="1380" y="929" type="line"/>
      <point x="1115" y="1194" type="line" name="hr06"/>
      <point x="1005" y="1194" type="line"/>
      <point x="1005" y="1344" type="line"/>
      <point x="740" y="1344" type="line"/>
      <point x="740" y="929" type="line"/>
    </contour>
    <contour>
      <point x="1115" y="133" type="line"/>
      <point x="1380" y="398" type="line"/>
      <point x="1380" y="530" type="line"/>
      <point x="937" y="530" type="line"/>
      <point x="937" y="133" type="line"/>
    </contour>
  </outline>
</glyph>
<glyph name="sterling" format="1">
  <advance width="1743"/>
  <unicode hex="00A3"/>
  <outline>
    <contour>
      <point x="849" y="1416" type="line" name="hr00"/>
      <point x="672" y="1416" type="line"/>
      <point x="407" y="1151" type="line"/>
      <point x="407" y="708" type="line"/>
      <point x="230" y="708" type="line"/>
      <point x="230" y="520" type="line"/>
      <point x="407" y="520" type="line"/>
      <point x="407" y="265" type="line"/>
      <point x="407" y="264" type="line"/>
      <point x="230" y="265" type="line"/>
      <point x="230" y="0" type="line"/>
      <point x="849" y="0" type="line"/>
      <point x="849" y="520" type="line"/>
      <point x="1156" y="520" type="line"/>
      <point x="1156" y="708" type="line"/>
      <point x="849" y="708" type="line"/>
    </contour>
    <contour>
      <point x="1105" y="1151" type="line"/>
      <point x="1105" y="1020" type="line"/>
      <point x="1504" y="1020" type="line"/>
      <point x="1504" y="1151" type="line"/>
      <point x="1239" y="1416" type="line"/>
      <point x="917" y="1416" type="line"/>
      <point x="917" y="1151" type="line"/>
    </contour>
    <contour>
      <point x="1513" y="0" type="line"/>
      <point x="1513" y="264" type="line"/>
      <point x="917" y="265" type="line"/>
      <point x="917" y="0" type="line"/>
    </contour>
  </outline>
</glyph>
<glyph name="currency" format="1">
  <advance width="1461"/>
  <unicode hex="00A4"/>
  <outline>
    <contour>
      <point x="485" y="906" type="line" name="hr00"/>
      <point x="696" y="906" type="line"/>
      <point x="696" y="1159" type="line"/>
      <point x="543" y="1159" type="line"/>
      <point x="449" y="1065" type="line"/>
      <point x="225" y="1285" type="line"/>
      <point x="110" y="1168" type="line"/>
      <point x="329" y="945" type="line"/>
      <point x="244" y="861" type="line"/>
      <point x="244" y="709" type="line"/>
      <point x="485" y="709" type="line"/>
    </contour>
    <contour>
      <point x="1235" y="861" type="line"/>
      <point x="1140" y="954" type="line"/>
      <point x="1351" y="1168" type="line"/>
      <point x="1235" y="1285" type="line"/>
      <point x="1020" y="1072" type="line"/>
      <point x="936" y="1159" type="line"/>
      <point x="778" y="1159" type="line"/>
      <point x="778" y="906" type="line"/>
      <point x="994" y="906" type="line"/>
      <point x="994" y="709" type="line"/>
      <point x="1235" y="709" type="line"/>
    </contour>
    <contour>
      <point x="110" y="157" type="line"/>
      <point x="225" y="42" type="line"/>
      <point x="449" y="262" type="line"/>
      <point x="543" y="168" type="line"/>
      <point x="696" y="168" type="line"/>
      <point x="696" y="417" type="line"/>
      <point x="485" y="417" type="line"/>
      <point x="485" y="628" type="line"/>
      <point x="244" y="628" type="line"/>
      <point x="244" y="466" type="line"/>
      <point x="329" y="382" type="line"/>
    </contour>
    <contour>
      <point x="1235" y="42" type="line"/>
      <point x="1351" y="157" type="line"/>
      <point x="1140" y="373" type="line"/>
      <point x="1235" y="466" type="line"/>
      <point x="1235" y="628" type="line"/>
      <point x="994" y="628" type="line"/>
      <point x="994" y="417" type="line"/>
      <point x="778" y="417" type="line"/>
      <point x="778" y="168" type="line"/>
      <point x="936" y="168" type="line"/>
      <point x="1020" y="255" type="line"/>
    </contour>
  </outline>
</glyph>
<glyph name="yen" format="1">
  <advance width="1739"/>
  <unicode hex="00A5"/>
  <outline>
    <contour>
      <point x="371" y="423" type="line" name="hr00"/>
      <point x="645" y="423" type="line"/>
      <point x="645" y="314" type="line"/>
      <point x="371" y="314" type="line"/>
      <point x="371" y="182" type="line"/>
      <point x="645" y="182" type="line"/>
      <point x="645" y="0" type="line"/>
      <point x="1088" y="0" type="line"/>
      <point x="1088" y="182" type="line"/>
      <point x="1362" y="182" type="line"/>
      <point x="1362" y="314" type="line"/>
      <point x="1088" y="314" type="line"/>
      <point x="1088" y="423" type="line"/>
      <point x="1362" y="423" type="line"/>
      <point x="1362" y="556" type="line"/>
      <point x="1042" y="556" type="line"/>
      <point x="620" y="1327" type="line"/>
      <point x="195" y="1327" type="line"/>
      <point x="615" y="556" type="line"/>
      <point x="371" y="556" type="line"/>
    </contour>
    <contour>
      <point x="1544" y="1327" type="line"/>
      <point x="1119" y="1327" type="line"/>
      <point x="895" y="964" type="line"/>
      <point x="1091" y="616" type="line"/>
      <point x="1148" y="616" type="line"/>
    </contour>
  </outline>
</glyph>
<glyph name="brokenbar" format="1">
  <advance width="698"/>
  <unicode hex="00A6"/>
  <outline>
    <contour>
      <point x="468" y="697" type="line" name="hr00"/>
      <point x="468" y="1418" type="line"/>
      <point x="230" y="1418" type="line"/>
      <point x="230" y="697" type="line"/>
    </contour>
    <contour>
      <point x="468" y="-196" type="line"/>
      <point x="468" y="512" type="line"/>
      <point x="230" y="512" type="line"/>
      <point x="230" y="-196" type="line"/>
    </contour>
  </outline>
</glyph>
<glyph name="section" format="1">
  <advance width="1573"/>
  <unicode hex="00A7"/>
  <outline>
    <contour>
      <point x="1369" y="540" type="line" name="hr01"/>
      <point x="1369" y="896" type="line"/>
      <point x="1177" y="1085" type="line"/>
      <point x="618" y="1085" type="line"/>
      <point x="618" y="1300" type="line"/>
      <point x="751" y="1300" type="line"/>
      <point x="751" y="1490" type="line"/>
      <point x="371" y="1490" type="line"/>
      <point x="181" y="1300" type="line"/>
      <point x="181" y="1085" type="line"/>
      <point x="370" y="897" type="line"/>
      <point x="956" y="896" type="line"/>
      <point x="956" y="540" type="line"/>
    </contour>
    <contour>
      <point x="618" y="473" type="line"/>
      <point x="618" y="829" type="line"/>
      <point x="216" y="829" type="line"/>
      <point x="216" y="473" type="line"/>
      <point x="409" y="283" type="line"/>
      <point x="956" y="283" type="line"/>
      <point x="956" y="68" type="line"/>
      <point x="823" y="68" type="line"/>
      <point x="823" y="-121" type="line"/>
      <point x="1203" y="-121" type="line"/>
      <point x="1392" y="68" type="line"/>
      <point x="1392" y="283" type="line"/>
      <point x="1202" y="473" type="line"/>
    </contour>
    <contour>
      <point x="822" y="1300" type="line"/>
      <point x="955" y="1300" type="line"/>
      <point x="955" y="1187" type="line"/>
      <point x="1392" y="1187" type="line"/>
      <point x="1392" y="1300" type="line"/>
      <point x="1202" y="1490" type="line"/>
      <point x="822" y="1490" type="line"/>
    </contour>
    <contour>
      <point x="752" y="68" type="line"/>
      <point x="619" y="68" type="line"/>
      <point x="619" y="181" type="line" name="hr02"/>
      <point x="181" y="181" type="line"/>
      <point x="181" y="68" type="line"/>
      <point x="372" y="-121" type="line" name="hr03"/>
      <point x="752" y="-121" type="line"/>
    </contour>
  </outline>
</glyph>
<glyph name="dieresis" format="1">
  <advance width="1414"/>
  <unicode hex="00A8"/>
  <outline>
    <contour>
      <point x="274" y="1279" type="line" name="hr00"/>
      <point x="610" y="1279" type="line"/>
      <point x="610" y="1560" type="line"/>
      <point x="274" y="1560" type="line"/>
    </contour>
    <contour>
      <point x="804" y="1279" type="line"/>
      <point x="1140" y="1279" type="line"/>
      <point x="1140" y="1560" type="line"/>
      <point x="804" y="1560" type="line"/>
    </contour>
    <contour>
      <point x="709" y="1223" type="move" name="_top"/>
    </contour>
  </outline>
</glyph>
<glyph name="copyright" format="1">
  <advance width="1586"/>
  <unicode hex="00A9"/>
  <outline>
    <contour>
      <point x="1045" y="1062" type="line" name="hr00"/>
      <point x="1236" y="867" type="line"/>
      <point x="1236" y="708" type="line"/>
      <point x="899" y="708" type="line"/>
      <point x="899" y="841" type="line"/>
      <point x="687" y="841" type="line"/>
      <point x="687" y="398" type="line"/>
      <point x="899" y="398" type="line"/>
      <point x="899" y="530" type="line"/>
      <point x="1236" y="530" type="line"/>
      <point x="1236" y="368" type="line"/>
      <point x="1046" y="177" type="line"/>
      <point x="839" y="177" type="line"/>
      <point x="839" y="-43" type="line"/>
      <point x="1183" y="-43" type="line"/>
      <point x="1491" y="265" type="line"/>
      <point x="1491" y="973" type="line"/>
      <point x="1183" y="1282" type="line"/>
      <point x="822" y="1282" type="line"/>
      <point x="822" y="1062" type="line"/>
    </contour>
    <contour>
      <point x="404" y="-43" type="line"/>
      <point x="786" y="-43" type="line"/>
      <point x="786" y="177" type="line"/>
      <point x="543" y="177" type="line"/>
      <point x="351" y="370" type="line"/>
      <point x="351" y="867" type="line"/>
      <point x="545" y="1062" type="line"/>
      <point x="768" y="1062" type="line"/>
      <point x="768" y="1282" type="line"/>
      <point x="404" y="1282" type="line"/>
      <point x="95" y="973" type="line"/>
      <point x="95" y="265" type="line"/>
    </contour>
  </outline>
</glyph>
<glyph name="ordfeminine" format="1">
  <advance width="1145"/>
  <unicode hex="00AA"/>
  <outline>
    <contour>
      <point x="1003" y="530" type="line" name="hr00"/>
      <point x="1003" y="1128" type="line"/>
      <point x="804" y="1327" type="line"/>
      <point x="306" y="1327" type="line"/>
      <point x="206" y="1228" type="line"/>
      <point x="206" y="1128" type="line"/>
      <point x="670" y="1128" type="line"/>
      <point x="670" y="530" type="line"/>
    </contour>
    <contour>
      <point x="274" y="1001" type="line"/>
      <point x="142" y="869" type="line"/>
      <point x="142" y="662" type="line"/>
      <point x="274" y="530" type="line"/>
      <point x="504" y="530" type="line"/>
      <point x="603" y="628" type="line"/>
      <point x="603" y="729" type="line"/>
      <point x="473" y="729" type="line"/>
      <point x="473" y="856" type="line"/>
      <point x="603" y="856" type="line"/>
      <point x="603" y="1001" type="line"/>
    </contour>
    <contour>
      <point x="350" y="228" type="line"/>
      <point x="350" y="52" type="line"/>
      <point x="483" y="-81" type="line"/>
      <point x="660" y="-81" type="line"/>
      <point x="792" y="52" type="line"/>
      <point x="792" y="228" type="line"/>
      <point x="660" y="361" type="line"/>
      <point x="483" y="361" type="line"/>
    </contour>
  </outline>
</glyph>
<glyph name="logicalnot" format="1">
  <advance width="1623"/>
  <unicode hex="00AC"/>
  <outline>
    <contour>
      <point x="186" y="731" type="line" name="hr00"/>
      <point x="1198" y="731" type="line"/>
      <point x="1198" y="270" type="line"/>
      <point x="1437" y="270" type="line"/>
      <point x="1437" y="969" type="line"/>
      <point x="186" y="969" type="line"/>
    </contour>
  </outline>
</glyph>
<glyph name="uni00AD" format="1">
  <advance width="1077"/>
  <unicode hex="00AD"/>
  <outline>
    <contour>
      <point x="97" y="486" type="line" name="hr00"/>
      <point x="982" y="486" type="line"/>
      <point x="982" y="752" type="line"/>
      <point x="97" y="752" type="line"/>
    </contour>
  </outline>
</glyph>
<glyph name="registered" format="1">
  <advance width="1586"/>
  <unicode hex="00AE"/>
  <outline>
    <contour>
      <point x="1183" y="-43" type="line" name="hr01"/>
      <point x="1491" y="265" type="line"/>
      <point x="1491" y="973" type="line"/>
      <point x="1183" y="1282" type="line"/>
      <point x="820" y="1282" type="line"/>
      <point x="820" y="1062" type="line"/>
      <point x="1060" y="1062" type="line"/>
      <point x="1237" y="885" type="line"/>
      <point x="1237" y="618" type="line"/>
      <point x="1103" y="483" type="line"/>
      <point x="1267" y="177" type="line"/>
      <point x="1085" y="177" type="line"/>
      <point x="1085" y="-43" type="line"/>
    </contour>
    <contour>
      <point x="501" y="-43" type="line"/>
      <point x="501" y="177" type="line"/>
      <point x="347" y="177" type="line"/>
      <point x="347" y="1062" type="line"/>
      <point x="766" y="1062" type="line"/>
      <point x="766" y="1282" type="line"/>
      <point x="404" y="1282" type="line"/>
      <point x="95" y="973" type="line"/>
      <point x="95" y="265" type="line"/>
      <point x="404" y="-43" type="line"/>
    </contour>
    <contour>
      <point x="772" y="442" type="line" name="hr02"/>
      <point x="696" y="442" type="line"/>
      <point x="696" y="177" type="line"/>
      <point x="555" y="177" type="line"/>
      <point x="555" y="-43" type="line"/>
      <point x="1032" y="-43" type="line"/>
      <point x="1032" y="177" type="line"/>
      <point x="905" y="177" type="line"/>
    </contour>
    <contour>
      <point x="696" y="655" type="line" name="hr03"/>
      <point x="891" y="655" type="line"/>
      <point x="891" y="849" type="line"/>
      <point x="696" y="849" type="line"/>
    </contour>
  </outline>
</glyph>
<glyph name="macron" format="1">
  <advance width="1238"/>
  <unicode hex="00AF"/>
  <outline>
    <contour>
      <point x="251" y="1223" type="line" name="hr00"/>
      <point x="980" y="1223" type="line"/>
      <point x="980" y="1393" type="line"/>
      <point x="251" y="1393" type="line"/>
    </contour>
    <contour>
      <point x="615" y="1223" type="move" name="_top"/>
    </contour>
  </outline>
</glyph>
<glyph name="degree" format="1">
  <advance width="1173"/>
  <unicode hex="00B0"/>
  <outline>
    <contour>
      <point x="792" y="481" type="line" name="hr00"/>
      <point x="1035" y="724" type="line"/>
      <point x="1035" y="1084" type="line"/>
      <point x="792" y="1327" type="line"/>
      <point x="620" y="1327" type="line"/>
      <point x="620" y="1081" type="line"/>
      <point x="767" y="1081" type="line"/>
      <point x="767" y="718" type="line"/>
      <point x="620" y="718" type="line"/>
      <point x="620" y="481" type="line"/>
    </contour>
    <contour>
      <point x="406" y="718" type="line"/>
      <point x="406" y="1081" type="line"/>
      <point x="553" y="1081" type="line"/>
      <point x="553" y="1327" type="line"/>
      <point x="380" y="1327" type="line"/>
      <point x="138" y="1084" type="line"/>
      <point x="138" y="724" type="line"/>
      <point x="380" y="481" type="line"/>
      <point x="553" y="481" type="line"/>
      <point x="553" y="718" type="line"/>
    </contour>
  </outline>
</glyph>
<glyph name="plusminus" format="1">
  <advance width="1439"/>
  <unicode hex="00B1"/>
  <outline>
    <contour>
      <point x="186" y="670" type="line" name="hr00"/>
      <point x="601" y="670" type="line"/>
      <point x="601" y="442" type="line"/>
      <point x="842" y="442" type="line"/>
      <point x="842" y="670" type="line"/>
      <point x="1253" y="670" type="line"/>
      <point x="1253" y="910" type="line"/>
      <point x="842" y="910" type="line"/>
      <point x="842" y="1140" type="line"/>
      <point x="601" y="1140" type="line"/>
      <point x="601" y="910" type="line"/>
      <point x="186" y="910" type="line"/>
    </contour>
    <contour>
      <point x="186" y="74" type="line"/>
      <point x="1253" y="74" type="line"/>
      <point x="1253" y="313" type="line"/>
      <point x="186" y="313" type="line"/>
    </contour>
  </outline>
</glyph>
<glyph name="twosuperior" format="1">
  <advance width="1083"/>
  <unicode hex="00B2"/>
  <outline>
    <contour>
      <point x="424" y="738" type="line" name="hr01"/>
      <point x="809" y="738" type="line"/>
      <point x="994" y="924" type="line"/>
      <point x="994" y="1141" type="line"/>
      <point x="791" y="1327" type="line"/>
      <point x="667" y="1327" type="line"/>
      <point x="667" y="924" type="line"/>
      <point x="283" y="924" type="line"/>
      <point x="97" y="738" type="line"/>
      <point x="97" y="398" type="line"/>
      <point x="424" y="398" type="line"/>
    </contour>
    <contour>
      <point x="97" y="1141" type="line" name="hr02"/>
      <point x="97" y="1047" type="line"/>
      <point x="407" y="1047" type="line"/>
      <point x="407" y="1141" type="line" name="hr03"/>
      <point x="597" y="1141" type="line"/>
      <point x="597" y="1327" type="line"/>
      <point x="283" y="1327" type="line"/>
    </contour>
    <contour>
      <point x="1012" y="398" type="line"/>
      <point x="1012" y="584" type="line"/>
      <point x="485" y="584" type="line"/>
      <point x="485" y="398" type="line"/>
    </contour>
  </outline>
</glyph>
<glyph name="threesuperior" format="1">
  <advance width="1076"/>
  <unicode hex="00B3"/>
  <outline>
    <contour>
      <point x="792" y="398" type="line" name="hr01"/>
      <point x="978" y="582" type="line"/>
      <point x="978" y="772" type="line"/>
      <point x="886" y="861" type="line"/>
      <point x="978" y="956" type="line"/>
      <point x="978" y="1145" type="line"/>
      <point x="792" y="1327" type="line"/>
      <point x="665" y="1327" type="line"/>
      <point x="665" y="956" type="line"/>
      <point x="359" y="956" type="line"/>
      <point x="359" y="772" type="line"/>
      <point x="665" y="772" type="line"/>
      <point x="665" y="398" type="line"/>
    </contour>
    <contour>
      <point x="79" y="1141" type="line"/>
      <point x="79" y="1047" type="line"/>
      <point x="389" y="1047" type="line"/>
      <point x="389" y="1141" type="line"/>
      <point x="598" y="1141" type="line"/>
      <point x="598" y="1327" type="line"/>
      <point x="265" y="1327" type="line"/>
    </contour>
    <contour>
      <point x="389" y="582" type="line"/>
      <point x="389" y="677" type="line" name="hr02"/>
      <point x="79" y="677" type="line"/>
      <point x="79" y="582" type="line"/>
      <point x="265" y="398" type="line" name="hr03"/>
      <point x="598" y="398" type="line"/>
      <point x="598" y="582" type="line"/>
    </contour>
  </outline>
</glyph>
<glyph name="acute" format="1">
  <advance width="1098"/>
  <unicode hex="00B4"/>
  <outline>
    <contour>
      <point x="274" y="1291" type="line" name="hr00"/>
      <point x="336" y="1144" type="line"/>
      <point x="890" y="1311" type="line"/>
      <point x="944" y="1522" type="line"/>
      <point x="760" y="1607" type="line"/>
    </contour>
    <contour>
      <point x="559" y="1223" type="move" name="_top"/>
    </contour>
  </outline>
</glyph>
<glyph name="mu" format="1">
  <advance width="1412"/>
  <unicode hex="00B5"/>
  <unicode hex="03BC"/>
  <outline>
    <contour>
      <point x="121" y="1062" type="line" name="hr00"/>
      <point x="121" y="-354" type="line"/>
      <point x="431" y="-354" type="line"/>
      <point x="431" y="1062" type="line"/>
    </contour>
    <contour>
      <point x="499" y="133" type="line"/>
      <point x="626" y="0" type="line"/>
      <point x="919" y="0" type="line"/>
      <point x="1052" y="133" type="line"/>
      <point x="1185" y="0" type="line"/>
      <point x="1377" y="0" type="line"/>
      <point x="1377" y="237" type="line"/>
      <point x="1210" y="237" type="line"/>
      <point x="1210" y="1062" type="line"/>
      <point x="893" y="1062" type="line"/>
      <point x="893" y="237" type="line"/>
      <point x="499" y="237" type="line"/>
    </contour>
  </outline>
</glyph>
<glyph name="paragraph" format="1">
  <advance width="1610"/>
  <unicode hex="00B6"/>
  <outline>
    <contour>
      <point x="785" y="444" type="line" name="hr00"/>
      <point x="785" y="1062" type="line"/>
      <point x="917" y="1062" type="line"/>
      <point x="917" y="1327" type="line"/>
      <point x="442" y="1327" type="line"/>
      <point x="176" y="1062" type="line"/>
      <point x="176" y="444" type="line"/>
      <point x="442" y="177" type="line"/>
      <point x="917" y="177" type="line"/>
      <point x="917" y="444" type="line"/>
    </contour>
    <contour>
      <point x="1424" y="1327" type="line"/>
      <point x="983" y="1327" type="line"/>
      <point x="983" y="-191" type="line"/>
      <point x="1159" y="-191" type="line"/>
      <point x="1424" y="74" type="line"/>
    </contour>
  </outline>
</glyph>
<glyph name="periodcentered" format="1">
  <advance width="725"/>
  <unicode hex="00B7"/>
  <outline>
    <contour>
      <point x="141" y="773" type="line" name="hr00"/>
      <point x="141" y="596" type="line"/>
      <point x="273" y="464" type="line"/>
      <point x="450" y="464" type="line"/>
      <point x="583" y="596" type="line"/>
      <point x="583" y="773" type="line"/>
      <point x="450" y="906" type="line"/>
      <point x="273" y="906" type="line"/>
    </contour>
  </outline>
</glyph>
<glyph name="cedilla" format="1">
  <advance width="1008"/>
  <unicode hex="00B8"/>
  <outline>
    <contour>
      <point x="285" y="-225" type="line" name="hr00"/>
      <point x="285" y="-507" type="line"/>
      <point x="597" y="-507" type="line"/>
      <point x="772" y="-307" type="line"/>
      <point x="772" y="-62" type="line"/>
      <point x="570" y="-62" type="line"/>
      <point x="570" y="-225" type="line"/>
    </contour>
    <contour>
      <point x="596" y="0" type="move" name="_btm"/>
    </contour>
  </outline>
</glyph>
<glyph name="onesuperior" format="1">
  <advance width="902"/>
  <unicode hex="00B9"/>
  <outline>
    <contour>
      <point x="622" y="1327" type="line" name="hr00"/>
      <point x="142" y="1327" type="line"/>
      <point x="142" y="1141" type="line"/>
      <point x="297" y="1141" type="line"/>
      <point x="297" y="651" type="line"/>
      <point x="622" y="651" type="line"/>
    </contour>
    <contour>
      <point x="142" y="398" type="line"/>
      <point x="778" y="398" type="line"/>
      <point x="778" y="584" type="line"/>
      <point x="142" y="584" type="line"/>
    </contour>
  </outline>
</glyph>
<glyph name="ordmasculine" format="1">
  <advance width="1148"/>
  <unicode hex="00BA"/>
  <outline>
    <contour>
      <point x="1007" y="1129" type="line" name="hr00"/>
      <point x="807" y="1329" type="line"/>
      <point x="607" y="1329" type="line"/>
      <point x="607" y="1129" type="line"/>
      <point x="674" y="1129" type="line"/>
      <point x="674" y="731" type="line"/>
      <point x="607" y="731" type="line"/>
      <point x="607" y="530" type="line"/>
      <point x="807" y="530" type="line"/>
      <point x="1007" y="731" type="line"/>
    </contour>
    <contour>
      <point x="474" y="1129" type="line"/>
      <point x="539" y="1129" type="line"/>
      <point x="539" y="1329" type="line"/>
      <point x="341" y="1329" type="line"/>
      <point x="142" y="1129" type="line"/>
      <point x="142" y="731" type="line"/>
      <point x="341" y="530" type="line"/>
      <point x="539" y="530" type="line"/>
      <point x="539" y="731" type="line"/>
      <point x="474" y="731" type="line"/>
    </contour>
    <contour>
      <point x="353" y="228" type="line"/>
      <point x="353" y="52" type="line"/>
      <point x="486" y="-81" type="line"/>
      <point x="664" y="-81" type="line"/>
      <point x="796" y="52" type="line"/>
      <point x="796" y="228" type="line"/>
      <point x="664" y="361" type="line"/>
      <point x="486" y="361" type="line"/>
    </contour>
  </outline>
</glyph>
<glyph name="onequarter" format="1">
  <advance width="2398"/>
  <unicode hex="00BC"/>
  <outline>
    <contour>
      <point x="789" y="0" type="line" name="hr00"/>
      <point x="1037" y="0" type="line"/>
      <point x="1516" y="1327" type="line"/>
      <point x="1268" y="1327" type="line"/>
    </contour>
    <contour>
      <point x="649" y="1327" type="line"/>
      <point x="186" y="1327" type="line"/>
      <point x="186" y="1141" type="line"/>
      <point x="341" y="1141" type="line"/>
      <point x="341" y="651" type="line"/>
      <point x="649" y="651" type="line"/>
    </contour>
    <contour>
      <point x="186" y="398" type="line"/>
      <point x="805" y="398" type="line"/>
      <point x="805" y="584" type="line"/>
      <point x="186" y="584" type="line"/>
    </contour>
    <contour>
      <point x="2145" y="929" type="line"/>
      <point x="1836" y="929" type="line"/>
      <point x="1836" y="0" type="line"/>
      <point x="2145" y="0" type="line"/>
      <point x="2145" y="139" type="line"/>
      <point x="2290" y="139" type="line"/>
      <point x="2290" y="309" type="line"/>
      <point x="2145" y="309" type="line"/>
    </contour>
    <contour>
      <point x="1314" y="139" type="line"/>
      <point x="1769" y="139" type="line"/>
      <point x="1769" y="309" type="line"/>
      <point x="1611" y="309" type="line"/>
      <point x="1769" y="471" type="line"/>
      <point x="1769" y="839" type="line"/>
      <point x="1314" y="309" type="line"/>
    </contour>
  </outline>
</glyph>
<glyph name="onehalf" format="1">
  <advance width="2550"/>
  <unicode hex="00BD"/>
  <outline>
    <contour>
      <point x="787" y="0" type="line" name="hr00"/>
      <point x="1037" y="0" type="line"/>
      <point x="1516" y="1327" type="line"/>
      <point x="1267" y="1327" type="line"/>
    </contour>
    <contour>
      <point x="649" y="1327" type="line"/>
      <point x="186" y="1327" type="line"/>
      <point x="186" y="1141" type="line"/>
      <point x="340" y="1141" type="line"/>
      <point x="340" y="651" type="line"/>
      <point x="649" y="651" type="line"/>
    </contour>
    <contour>
      <point x="186" y="398" type="line"/>
      <point x="805" y="398" type="line"/>
      <point x="805" y="584" type="line"/>
      <point x="186" y="584" type="line"/>
    </contour>
    <component base="twosuperior" xOffset="1389" yOffset="-383"/>
  </outline>
</glyph>
<glyph name="threequarters" format="1">
  <advance width="2519"/>
  <unicode hex="00BE"/>
  <outline>
    <contour>
      <point x="916" y="0" type="line" name="hr00"/>
      <point x="1166" y="0" type="line"/>
      <point x="1645" y="1327" type="line"/>
      <point x="1395" y="1327" type="line"/>
    </contour>
    <contour>
      <point x="2291" y="929" type="line"/>
      <point x="1982" y="929" type="line"/>
      <point x="1982" y="0" type="line"/>
      <point x="2291" y="0" type="line"/>
      <point x="2291" y="139" type="line"/>
      <point x="2436" y="139" type="line"/>
      <point x="2436" y="309" type="line"/>
      <point x="2291" y="309" type="line"/>
    </contour>
    <contour>
      <point x="1460" y="139" type="line"/>
      <point x="1915" y="139" type="line"/>
      <point x="1915" y="309" type="line"/>
      <point x="1757" y="309" type="line"/>
      <point x="1915" y="471" type="line"/>
      <point x="1915" y="839" type="line"/>
      <point x="1460" y="309" type="line"/>
    </contour>
    <component base="threesuperior"/>
  </outline>
</glyph>
<glyph name="Aring" format="1">
  <advance width="1500"/>
  <unicode hex="00C5"/>
  <outline>
    <contour>
      <point x="635" y="1386" type="line" name="hr00"/>
      <point x="635" y="1612" type="line"/>
      <point x="711" y="1612" type="line"/>
      <point x="711" y="1767" type="line"/>
      <point x="596" y="1767" type="line"/>
      <point x="458" y="1630" type="line"/>
      <point x="458" y="1401" type="line"/>
      <point x="532" y="1327" type="line"/>
      <point x="531" y="1327" type="line"/>
      <point x="897" y="380" type="line"/>
      <point x="636" y="380" type="line"/>
      <point x="544" y="117" type="line"/>
      <point x="998" y="117" type="line"/>
      <point x="1044" y="0" type="line"/>
      <point x="1491" y="0" type="line"/>
      <point x="962" y="1327" type="line"/>
      <point x="959" y="1327" type="line"/>
      <point x="1034" y="1401" type="line"/>
      <point x="1034" y="1630" type="line"/>
      <point x="895" y="1767" type="line"/>
      <point x="781" y="1767" type="line"/>
      <point x="781" y="1612" type="line"/>
      <point x="858" y="1612" type="line"/>
      <point x="858" y="1386" type="line"/>
    </contour>
    <contour>
      <point x="679" y="740" type="line"/>
      <point x="483" y="1267" type="line"/>
      <point x="9" y="0" type="line"/>
      <point x="436" y="0" type="line"/>
    </contour>
  </outline>
</glyph>
<glyph name="AE" format="1">
  <advance width="2305"/>
  <unicode hex="00C6"/>
  <outline>
    <contour>
      <point x="1891" y="530" type="line" name="hr00"/>
      <point x="1891" y="797" type="line"/>
      <point x="1449" y="797" type="line"/>
      <point x="1449" y="1327" type="line"/>
      <point x="1007" y="1327" type="line"/>
      <point x="1007" y="0" type="line"/>
      <point x="1449" y="0" type="line"/>
      <point x="1449" y="530" type="line"/>
    </contour>
    <contour>
      <point x="939" y="474" type="line"/>
      <point x="678" y="474" type="line"/>
      <point x="939" y="1051" type="line"/>
      <point x="939" y="1327" type="line"/>
      <point x="642" y="1327" type="line"/>
      <point x="9" y="0" type="line"/>
      <point x="465" y="0" type="line"/>
      <point x="560" y="211" type="line"/>
      <point x="939" y="211" type="line"/>
    </contour>
    <contour>
      <point x="1803" y="1062" type="line"/>
      <point x="1803" y="929" type="line"/>
      <point x="2246" y="929" type="line"/>
      <point x="2246" y="1327" type="line"/>
      <point x="1516" y="1327" type="line"/>
      <point x="1516" y="1062" type="line"/>
    </contour>
    <contour>
      <point x="2246" y="0" type="line"/>
      <point x="2246" y="398" type="line"/>
      <point x="1803" y="398" type="line"/>
      <point x="1803" y="265" type="line"/>
      <point x="1516" y="265" type="line"/>
      <point x="1516" y="0" type="line"/>
    </contour>
    <contour>
      <point x="1236" y="1530" type="move" name="top"/>
    </contour>
  </outline>
</glyph>
<glyph name="Eth" format="1">
  <advance width="1496"/>
  <unicode hex="00D0"/>
  <outline>
    <contour>
      <point x="1134" y="0" type="line" name="hr00"/>
      <point x="1400" y="265" type="line"/>
      <point x="1400" y="1062" type="line"/>
      <point x="1134" y="1327" type="line"/>
      <point x="629" y="1327" type="line"/>
      <point x="629" y="1062" type="line"/>
      <point x="957" y="1062" type="line"/>
      <point x="957" y="265" type="line"/>
      <point x="629" y="265" type="line"/>
      <point x="629" y="0" type="line"/>
    </contour>
    <contour>
      <point x="29" y="570" type="line"/>
      <point x="117" y="570" type="line"/>
      <point x="117" y="0" type="line"/>
      <point x="559" y="0" type="line"/>
      <point x="559" y="570" type="line"/>
      <point x="774" y="570" type="line"/>
      <point x="774" y="757" type="line"/>
      <point x="559" y="757" type="line"/>
      <point x="559" y="1327" type="line"/>
      <point x="117" y="1327" type="line"/>
      <point x="117" y="757" type="line"/>
      <point x="29" y="757" type="line"/>
    </contour>
  </outline>
</glyph>
<glyph name="multiply" format="1">
  <advance width="1331"/>
  <unicode hex="00D7"/>
  <outline>
    <contour>
      <point x="352" y="142" type="line" name="hr00"/>
      <point x="664" y="457" type="line"/>
      <point x="977" y="142" type="line"/>
      <point x="1144" y="312" type="line"/>
      <point x="829" y="623" type="line"/>
      <point x="1142" y="933" type="line"/>
      <point x="977" y="1101" type="line"/>
      <point x="666" y="786" type="line"/>
      <point x="355" y="1102" type="line"/>
      <point x="189" y="932" type="line"/>
      <point x="503" y="621" type="line"/>
      <point x="187" y="310" type="line"/>
    </contour>
  </outline>
</glyph>
<glyph name="Oslash" format="1">
  <advance width="1456"/>
  <unicode hex="00D8"/>
  <outline>
    <contour>
      <point x="187" y="-88" type="line" name="hr00"/>
      <point x="534" y="-172" type="line"/>
      <point x="645" y="265" type="line"/>
      <point x="529" y="265" type="line"/>
      <point x="529" y="1062" type="line"/>
      <point x="741" y="1062" type="line"/>
      <point x="814" y="1327" type="line"/>
      <point x="353" y="1327" type="line"/>
      <point x="86" y="1062" type="line"/>
      <point x="86" y="265" type="line"/>
      <point x="240" y="111" type="line"/>
    </contour>
    <contour>
      <point x="1369" y="1062" type="line"/>
      <point x="1217" y="1213" type="line"/>
      <point x="1271" y="1415" type="line"/>
      <point x="923" y="1499" type="line"/>
      <point x="814" y="1062" type="line"/>
      <point x="927" y="1062" type="line"/>
      <point x="927" y="265" type="line"/>
      <point x="715" y="264" type="line"/>
      <point x="646" y="0" type="line"/>
      <point x="1104" y="0" type="line"/>
      <point x="1369" y="265" type="line"/>
    </contour>
  </outline>
</glyph>
<glyph name="Thorn" format="1">
  <advance width="1464"/>
  <unicode hex="00DE"/>
  <outline>
    <contour>
      <point x="537" y="0" type="line" name="hr00"/>
      <point x="537" y="1327" type="line"/>
      <point x="104" y="1327" type="line"/>
      <point x="104" y="0" type="line"/>
    </contour>
    <contour>
      <point x="935" y="873" type="line"/>
      <point x="935" y="474" type="line"/>
      <point x="607" y="474" type="line"/>
      <point x="607" y="209" type="line"/>
      <point x="1103" y="209" type="line"/>
      <point x="1369" y="474" type="line"/>
      <point x="1369" y="873" type="line"/>
      <point x="1103" y="1138" type="line"/>
      <point x="607" y="1138" type="line"/>
      <point x="607" y="873" type="line"/>
    </contour>
  </outline>
</glyph>
<glyph name="germandbls" format="1">
  <advance width="1443"/>
  <unicode hex="00DF"/>
  <outline>
    <contour>
      <point x="1112" y="0" type="line" name="hr00"/>
      <point x="1365" y="253" type="line"/>
      <point x="1365" y="631" type="line"/>
      <point x="1166" y="834" type="line"/>
      <point x="1237" y="902" type="line"/>
      <point x="1237" y="1247" type="line"/>
      <point x="1016" y="1467" type="line"/>
      <point x="614" y="1467" type="line"/>
      <point x="614" y="1203" type="line"/>
      <point x="845" y="1203" type="line"/>
      <point x="845" y="908" type="line"/>
      <point x="695" y="908" type="line"/>
      <point x="695" y="694" type="line"/>
      <point x="924" y="694" type="line"/>
      <point x="924" y="265" type="line"/>
      <point x="666" y="265" type="line"/>
      <point x="666" y="0" type="line"/>
    </contour>
    <contour>
      <point x="546" y="0" type="line"/>
      <point x="546" y="1467" type="line"/>
      <point x="369" y="1467" type="line"/>
      <point x="104" y="1203" type="line"/>
      <point x="104" y="0" type="line"/>
    </contour>
  </outline>
</glyph>
<glyph name="ae" format="1">
  <advance width="2030"/>
  <unicode hex="00E6"/>
  <outline>
    <contour>
      <point x="175" y="929" type="line" name="hr00"/>
      <point x="175" y="797" type="line"/>
      <point x="794" y="797" type="line"/>
      <point x="794" y="265" type="line"/>
      <point x="696" y="265" type="line"/>
      <point x="696" y="0" type="line"/>
      <point x="925" y="0" type="line"/>
      <point x="1015" y="88" type="line"/>
      <point x="1104" y="0" type="line"/>
      <point x="1336" y="0" type="line"/>
      <point x="1336" y="265" type="line"/>
      <point x="1236" y="265" type="line"/>
      <point x="1236" y="797" type="line"/>
      <point x="1336" y="797" type="line"/>
      <point x="1336" y="1062" type="line"/>
      <point x="1104" y="1062" type="line"/>
      <point x="1017" y="973" type="line"/>
      <point x="925" y="1062" type="line"/>
      <point x="308" y="1062" type="line"/>
    </contour>
    <contour>
      <point x="264" y="628" type="line"/>
      <point x="86" y="451" type="line"/>
      <point x="86" y="175" type="line"/>
      <point x="264" y="0" type="line"/>
      <point x="626" y="0" type="line"/>
      <point x="626" y="265" type="line"/>
      <point x="529" y="265" type="line"/>
      <point x="529" y="434" type="line"/>
      <point x="724" y="434" type="line"/>
      <point x="724" y="628" type="line"/>
    </contour>
    <contour>
      <point x="1945" y="434" type="line"/>
      <point x="1945" y="797" type="line"/>
      <point x="1679" y="1062" type="line"/>
      <point x="1406" y="1062" type="line"/>
      <point x="1406" y="797" type="line"/>
      <point x="1502" y="797" type="line"/>
      <point x="1502" y="628" type="line"/>
      <point x="1309" y="628" type="line"/>
      <point x="1309" y="434" type="line"/>
    </contour>
    <contour>
      <point x="1768" y="0" type="line"/>
      <point x="1900" y="133" type="line"/>
      <point x="1900" y="265" type="line"/>
      <point x="1406" y="265" type="line"/>
      <point x="1406" y="0" type="line"/>
    </contour>
    <contour>
      <point x="1020" y="1223" type="move" name="top"/>
    </contour>
  </outline>
</glyph>
<glyph name="eth" format="1">
  <advance width="1353"/>
  <unicode hex="00F0"/>
  <outline>
    <contour>
      <point x="542" y="1015" type="line" name="hr00"/>
      <point x="708" y="1093" type="line"/>
      <point x="805" y="962" type="line"/>
      <point x="805" y="0" type="line"/>
      <point x="982" y="0" type="line"/>
      <point x="1248" y="265" type="line"/>
      <point x="1245" y="966" type="line"/>
      <point x="1054" y="1235" type="line"/>
      <point x="1205" y="1312" type="line"/>
      <point x="1117" y="1484" type="line"/>
      <point x="933" y="1400" type="line"/>
      <point x="826" y="1529" type="line"/>
      <point x="506" y="1377" type="line"/>
      <point x="608" y="1259" type="line"/>
      <point x="446" y="1178" type="line"/>
    </contour>
    <contour>
      <point x="539" y="702" type="line"/>
      <point x="735" y="702" type="line"/>
      <point x="735" y="941" type="line"/>
      <point x="363" y="941" type="line"/>
      <point x="97" y="702" type="line"/>
      <point x="97" y="265" type="line"/>
      <point x="363" y="0" type="line"/>
      <point x="735" y="0" type="line"/>
      <point x="735" y="265" type="line"/>
      <point x="539" y="265" type="line"/>
    </contour>
  </outline>
</glyph>
<glyph name="divide" format="1">
  <advance width="1439"/>
  <unicode hex="00F7"/>
  <outline>
    <contour>
      <point x="186" y="501" type="line" name="hr00"/>
      <point x="1253" y="501" type="line"/>
      <point x="1253" y="740" type="line"/>
      <point x="186" y="740" type="line"/>
    </contour>
    <contour>
      <point x="554" y="915" type="line"/>
      <point x="885" y="915" type="line"/>
      <point x="885" y="1153" type="line"/>
      <point x="554" y="1153" type="line"/>
    </contour>
    <contour>
      <point x="554" y="86" type="line"/>
      <point x="885" y="86" type="line"/>
      <point x="885" y="326" type="line"/>
      <point x="554" y="326" type="line"/>
    </contour>
  </outline>
</glyph>
<glyph name="oslash" format="1">
  <advance width="1357"/>
  <unicode hex="00F8"/>
  <outline>
    <contour>
      <point x="193" y="-137" type="line" name="hr00"/>
      <point x="516" y="-221" type="line"/>
      <point x="645" y="264" type="line"/>
      <point x="569" y="264" type="line"/>
      <point x="569" y="265" type="line"/>
      <point x="546" y="265" type="line"/>
      <point x="546" y="797" type="line"/>
      <point x="626" y="797" type="line"/>
      <point x="698" y="1062" type="line"/>
      <point x="369" y="1062" type="line"/>
      <point x="95" y="797" type="line"/>
      <point x="95" y="265" type="line"/>
      <point x="257" y="107" type="line"/>
    </contour>
    <contour>
      <point x="1164" y="1192" type="line"/>
      <point x="841" y="1276" type="line"/>
      <point x="715" y="797" type="line"/>
      <point x="811" y="797" type="line"/>
      <point x="811" y="265" type="line"/>
      <point x="732" y="264" type="line"/>
      <point x="663" y="0" type="line"/>
      <point x="988" y="0" type="line"/>
      <point x="1262" y="265" type="line"/>
      <point x="1262" y="797" type="line"/>
      <point x="1102" y="952" type="line"/>
    </contour>
  </outline>
</glyph>
<glyph name="thorn" format="1">
  <advance width="1349"/>
  <unicode hex="00FE"/>
  <outline>
    <contour>
      <point x="104" y="1450" type="line" name="hr00"/>
      <point x="104" y="-354" type="line"/>
      <point x="546" y="-354" type="line"/>
      <point x="546" y="1450" type="line"/>
    </contour>
    <contour>
      <point x="811" y="265" type="line"/>
      <point x="613" y="265" type="line"/>
      <point x="613" y="0" type="line"/>
      <point x="988" y="0" type="line"/>
      <point x="1254" y="265" type="line"/>
      <point x="1254" y="797" type="line"/>
      <point x="988" y="1062" type="line"/>
      <point x="744" y="1062" type="line"/>
      <point x="613" y="931" type="line"/>
      <point x="613" y="797" type="line"/>
      <point x="811" y="797" type="line"/>
    </contour>
  </outline>
</glyph>
<glyph name="dcroat" format="1">
  <advance width="1366"/>
  <unicode hex="0111"/>
  <outline>
    <contour>
      <point x="820" y="1467" type="line" name="hr00"/>
      <point x="820" y="1358" type="line"/>
      <point x="631" y="1358" type="line"/>
      <point x="631" y="1179" type="line"/>
      <point x="820" y="1179" type="line"/>
      <point x="820" y="0" type="line"/>
      <point x="1262" y="0" type="line"/>
      <point x="1262" y="1179" type="line"/>
      <point x="1402" y="1179" type="line"/>
      <point x="1402" y="1358" type="line"/>
      <point x="1262" y="1358" type="line"/>
      <point x="1262" y="1467" type="line"/>
    </contour>
    <contour>
      <point x="537" y="797" type="line"/>
      <point x="750" y="797" type="line"/>
      <point x="750" y="1062" type="line"/>
      <point x="334" y="1062" type="line"/>
      <point x="95" y="823" type="line"/>
      <point x="95" y="239" type="line"/>
      <point x="334" y="0" type="line"/>
      <point x="645" y="0" type="line"/>
      <point x="750" y="105" type="line"/>
      <point x="750" y="248" type="line"/>
      <point x="537" y="248" type="line"/>
    </contour>
  </outline>
</glyph>
<glyph name="Hbar" format="1">
  <advance width="1516"/>
  <unicode hex="0126"/>
  <outline>
    <contour>
      <point x="629" y="955" type="line" name="hr00"/>
      <point x="954" y="955" type="line"/>
      <point x="954" y="805" type="line"/>
      <point x="629" y="805" type="line"/>
      <point x="629" y="539" type="line"/>
      <point x="957" y="539" type="line"/>
      <point x="957" y="0" type="line"/>
      <point x="1400" y="0" type="line"/>
      <point x="1400" y="955" type="line"/>
      <point x="1516" y="955" type="line"/>
      <point x="1516" y="1144" type="line"/>
      <point x="1400" y="1144" type="line"/>
      <point x="1400" y="1327" type="line"/>
      <point x="954" y="1327" type="line"/>
      <point x="954" y="1144" type="line"/>
      <point x="629" y="1144" type="line"/>
    </contour>
    <contour>
      <point x="0" y="955" type="line"/>
      <point x="117" y="955" type="line"/>
      <point x="117" y="0" type="line"/>
      <point x="559" y="0" type="line"/>
      <point x="559" y="1327" type="line"/>
      <point x="117" y="1327" type="line"/>
      <point x="117" y="1144" type="line"/>
      <point x="0" y="1144" type="line"/>
    </contour>
  </outline>
</glyph>
<glyph name="hbar" format="1">
  <advance width="1349"/>
  <unicode hex="0127"/>
  <outline>
    <contour>
      <point x="104" y="0" type="line" name="hr00"/>
      <point x="546" y="0" type="line"/>
      <point x="546" y="1150" type="line"/>
      <point x="849" y="1150" type="line"/>
      <point x="849" y="1327" type="line"/>
      <point x="546" y="1327" type="line"/>
      <point x="546" y="1460" type="line"/>
      <point x="104" y="1460" type="line"/>
      <point x="104" y="1327" type="line"/>
      <point x="-36" y="1327" type="line"/>
      <point x="-36" y="1150" type="line"/>
      <point x="104" y="1150" type="line"/>
    </contour>
    <contour>
      <point x="811" y="0" type="line"/>
      <point x="1254" y="0" type="line"/>
      <point x="1254" y="797" type="line"/>
      <point x="988" y="1062" type="line"/>
      <point x="744" y="1062" type="line"/>
      <point x="613" y="931" type="line"/>
      <point x="613" y="797" type="line"/>
      <point x="811" y="797" type="line"/>
    </contour>
  </outline>
</glyph>
<glyph name="dotlessi" format="1">
  <advance width="653"/>
  <unicode hex="0131"/>
  <outline>
    <contour>
      <point x="105" y="0" type="line" name="hr00"/>
      <point x="548" y="0" type="line"/>
      <point x="548" y="1062" type="line"/>
      <point x="105" y="1062" type="line"/>
    </contour>
    <contour>
      <point x="327" y="1223" type="move" name="top"/>
    </contour>
  </outline>
</glyph>
<glyph name="IJ" format="1">
  <advance width="1468"/>
  <unicode hex="0132"/>
  <outline>
    <contour>
      <point x="117" y="0" type="line" name="hr00"/>
      <point x="1099" y="0" type="line"/>
      <point x="1364" y="265" type="line"/>
      <point x="1364" y="1327" type="line"/>
      <point x="922" y="1327" type="line"/>
      <point x="922" y="265" type="line"/>
      <point x="119" y="265" type="line"/>
    </contour>
    <contour>
      <point x="576" y="432" type="line"/>
      <point x="576" y="1327" type="line"/>
      <point x="117" y="1327" type="line"/>
      <point x="117" y="432" type="line"/>
    </contour>
  </outline>
</glyph>
<glyph name="ij" format="1">
  <advance width="1336"/>
  <unicode hex="0133"/>
  <outline>
    <contour>
      <point x="345" y="0" type="line" name="hr00"/>
      <point x="548" y="0" type="line"/>
      <point x="548" y="1062" type="line"/>
      <point x="105" y="1062" type="line"/>
      <point x="105" y="239" type="line"/>
    </contour>
    <contour>
      <point x="105" y="1194" type="line"/>
      <point x="548" y="1194" type="line"/>
      <point x="548" y="1476" type="line"/>
      <point x="105" y="1476" type="line"/>
    </contour>
    <contour>
      <point x="107" y="-389" type="line"/>
      <point x="964" y="-389" type="line"/>
      <point x="1230" y="-123" type="line"/>
      <point x="1230" y="1062" type="line"/>
      <point x="788" y="1062" type="line"/>
      <point x="788" y="-123" type="line"/>
      <point x="107" y="-123" type="line"/>
    </contour>
    <contour>
      <point x="786" y="1194" type="line"/>
      <point x="1229" y="1194" type="line"/>
      <point x="1229" y="1476" type="line"/>
      <point x="786" y="1476" type="line"/>
    </contour>
  </outline>
</glyph>
<glyph name="kgreenlandic" format="1">
  <advance width="1307"/>
  <unicode hex="0138"/>
  <outline>
    <contour>
      <point x="546" y="1062" type="line" name="hr00"/>
      <point x="104" y="1062" type="line"/>
      <point x="104" y="0" type="line"/>
      <point x="546" y="0" type="line"/>
    </contour>
    <contour>
      <point x="1276" y="1061" type="line"/>
      <point x="819" y="1062" type="line"/>
      <point x="613" y="756" type="line"/>
      <point x="613" y="150" type="line"/>
    </contour>
    <contour>
      <point x="1002" y="566" type="line"/>
      <point x="745" y="214" type="line"/>
      <point x="819" y="0" type="line"/>
      <point x="1299" y="0" type="line"/>
    </contour>
  </outline>
</glyph>
<glyph name="lacute" format="1">
  <advance width="753"/>
  <unicode hex="013A"/>
  <outline>
    <contour>
      <point x="744" y="265" type="line" name="hr00"/>
      <point x="546" y="265" type="line"/>
      <point x="546" y="1253" type="line"/>
      <point x="104" y="1253" type="line"/>
      <point x="104" y="248" type="line"/>
      <point x="352" y="0" type="line"/>
      <point x="744" y="0" type="line"/>
    </contour>
    <component base="acute.cap" xOffset="8" yOffset="-73"/>
  </outline>
</glyph>
<glyph name="ldot" format="1">
  <advance width="1096"/>
  <unicode hex="0140"/>
  <outline>
    <contour>
      <point x="645" y="773" type="line" name="hr00"/>
      <point x="645" y="596" type="line"/>
      <point x="778" y="464" type="line"/>
      <point x="954" y="464" type="line"/>
      <point x="1087" y="596" type="line"/>
      <point x="1087" y="773" type="line"/>
      <point x="954" y="906" type="line"/>
      <point x="778" y="906" type="line"/>
    </contour>
    <component base="l"/>
  </outline>
</glyph>
<glyph name="Lslash" format="1">
  <advance width="1327"/>
  <unicode hex="0141"/>
  <outline>
    <contour>
      <point x="619" y="0" type="line" name="hr00"/>
      <point x="619" y="627" type="line"/>
      <point x="1065" y="813" type="line"/>
      <point x="975" y="1011" type="line"/>
      <point x="619" y="863" type="line"/>
      <point x="619" y="1327" type="line"/>
      <point x="177" y="1327" type="line"/>
      <point x="177" y="679" type="line"/>
      <point x="-29" y="594" type="line"/>
      <point x="61" y="396" type="line"/>
      <point x="177" y="444" type="line"/>
      <point x="177" y="0" type="line"/>
    </contour>
    <contour>
      <point x="1309" y="0" type="line"/>
      <point x="1309" y="433" type="line"/>
      <point x="908" y="433" type="line"/>
      <point x="908" y="265" type="line"/>
      <point x="689" y="265" type="line"/>
      <point x="689" y="0" type="line"/>
    </contour>
  </outline>
</glyph>
<glyph name="lslash" format="1">
  <advance width="753"/>
  <unicode hex="0142"/>
  <outline>
    <contour>
      <point x="727" y="860" type="line" name="hr00"/>
      <point x="727" y="1037" type="line"/>
      <point x="-13" y="783" type="line"/>
      <point x="-13" y="606" type="line"/>
    </contour>
    <component base="l"/>
  </outline>
</glyph>
<glyph name="Eng" format="1">
  <advance width="1508"/>
  <unicode hex="014A"/>
  <outline>
    <contour>
      <point x="1006" y="1327" type="line" name="hr00"/>
      <point x="1006" y="-179" type="line"/>
      <point x="680" y="-179" type="line"/>
      <point x="680" y="-444" type="line"/>
      <point x="1126" y="-444" type="line"/>
      <point x="1391" y="-109" type="line"/>
      <point x="1391" y="1327" type="line"/>
    </contour>
    <contour>
      <point x="584" y="1327" type="line"/>
      <point x="117" y="1327" type="line"/>
      <point x="939" y="0" type="line"/>
      <point x="939" y="742" type="line"/>
    </contour>
    <contour>
      <point x="502" y="0" type="line"/>
      <point x="502" y="578" type="line"/>
      <point x="117" y="1201" type="line"/>
      <point x="117" y="0" type="line"/>
    </contour>
  </outline>
</glyph>
<glyph name="eng" format="1">
  <advance width="1356"/>
  <unicode hex="014B"/>
  <outline>
    <contour>
      <point x="812" y="-180" type="line" name="hr00"/>
      <point x="607" y="-180" type="line"/>
      <point x="607" y="-446" type="line"/>
      <point x="989" y="-446" type="line"/>
      <point x="1255" y="-180" type="line"/>
      <point x="1255" y="823" type="line"/>
      <point x="1016" y="1062" type="line"/>
      <point x="770" y="1062" type="line"/>
      <point x="622" y="913" type="line"/>
      <point x="622" y="797" type="line"/>
      <point x="812" y="797" type="line"/>
    </contour>
    <contour>
      <point x="550" y="0" type="line"/>
      <point x="550" y="1062" type="line"/>
      <point x="104" y="1062" type="line"/>
      <point x="104" y="0" type="line"/>
    </contour>
  </outline>
</glyph>
<glyph name="OE" format="1">
  <advance width="2261"/>
  <unicode hex="0152"/>
  <outline>
    <contour>
      <point x="1234" y="0" type="line" name="hr01"/>
      <point x="1369" y="0" type="line"/>
      <point x="1369" y="553" type="line"/>
      <point x="1812" y="553" type="line"/>
      <point x="1812" y="785" type="line"/>
      <point x="1369" y="785" type="line"/>
      <point x="1369" y="1327" type="line" name="hr02"/>
      <point x="1234" y="1327" type="line"/>
      <point x="1147" y="1239" type="line"/>
      <point x="1055" y="1327" type="line"/>
      <point x="761" y="1327" type="line"/>
      <point x="761" y="1062" type="line"/>
      <point x="927" y="1062" type="line"/>
      <point x="927" y="265" type="line"/>
      <point x="761" y="265" type="line"/>
      <point x="761" y="0" type="line"/>
      <point x="1055" y="0" type="line"/>
      <point x="1145" y="88" type="line"/>
    </contour>
    <contour>
      <point x="529" y="1062" type="line"/>
      <point x="694" y="1062" type="line"/>
      <point x="694" y="1327" type="line"/>
      <point x="353" y="1327" type="line"/>
      <point x="86" y="1062" type="line" name="hr03"/>
      <point x="86" y="265" type="line"/>
      <point x="353" y="0" type="line" name="hr04"/>
      <point x="694" y="0" type="line"/>
      <point x="694" y="265" type="line"/>
      <point x="529" y="265" type="line"/>
    </contour>
    <contour>
      <point x="1724" y="1062" type="line"/>
      <point x="1724" y="929" type="line" name="hr05"/>
      <point x="2166" y="929" type="line"/>
      <point x="2166" y="1327" type="line" name="hr06"/>
      <point x="1437" y="1327" type="line"/>
      <point x="1437" y="1062" type="line"/>
    </contour>
    <contour>
      <point x="2166" y="0" type="line"/>
      <point x="2166" y="398" type="line" name="hr07"/>
      <point x="1724" y="398" type="line"/>
      <point x="1724" y="265" type="line" name="hr08"/>
      <point x="1437" y="265" type="line"/>
      <point x="1437" y="0" type="line"/>
    </contour>
  </outline>
</glyph>
<glyph name="oe" format="1">
  <advance width="2042"/>
  <unicode hex="0153"/>
  <outline>
    <contour>
      <point x="704" y="797" type="line" name="hr00"/>
      <point x="803" y="797" type="line"/>
      <point x="803" y="265" type="line"/>
      <point x="704" y="265" type="line"/>
      <point x="704" y="0" type="line"/>
      <point x="934" y="0" type="line"/>
      <point x="1024" y="88" type="line"/>
      <point x="1113" y="0" type="line"/>
      <point x="1344" y="0" type="line"/>
      <point x="1344" y="265" type="line"/>
      <point x="1245" y="265" type="line"/>
      <point x="1245" y="797" type="line"/>
      <point x="1344" y="797" type="line"/>
      <point x="1344" y="1062" type="line"/>
      <point x="1113" y="1062" type="line"/>
      <point x="1026" y="973" type="line"/>
      <point x="934" y="1062" type="line"/>
      <point x="704" y="1062" type="line"/>
    </contour>
    <contour>
      <point x="1954" y="434" type="line"/>
      <point x="1954" y="797" type="line"/>
      <point x="1687" y="1062" type="line"/>
      <point x="1414" y="1062" type="line"/>
      <point x="1414" y="797" type="line"/>
      <point x="1511" y="797" type="line"/>
      <point x="1511" y="628" type="line"/>
      <point x="1315" y="628" type="line"/>
      <point x="1315" y="434" type="line"/>
    </contour>
    <contour>
      <point x="1776" y="0" type="line"/>
      <point x="1909" y="133" type="line"/>
      <point x="1909" y="265" type="line"/>
      <point x="1414" y="265" type="line"/>
      <point x="1414" y="0" type="line"/>
    </contour>
    <contour>
      <point x="537" y="797" type="line"/>
      <point x="634" y="797" type="line"/>
      <point x="634" y="1062" type="line"/>
      <point x="360" y="1062" type="line"/>
      <point x="95" y="797" type="line"/>
      <point x="95" y="265" type="line"/>
      <point x="360" y="0" type="line"/>
      <point x="634" y="0" type="line"/>
      <point x="634" y="265" type="line"/>
      <point x="537" y="265" type="line"/>
    </contour>
  </outline>
</glyph>
<glyph name="Tbar" format="1">
  <advance width="1256"/>
  <unicode hex="0166"/>
  <outline>
    <contour>
      <point x="181" y="486" type="line" name="hr00"/>
      <point x="398" y="486" type="line"/>
      <point x="398" y="0" type="line"/>
      <point x="858" y="0" type="line"/>
      <point x="858" y="486" type="line"/>
      <point x="1068" y="486" type="line"/>
      <point x="1068" y="675" type="line"/>
      <point x="858" y="675" type="line"/>
      <point x="858" y="969" type="line"/>
      <point x="398" y="969" type="line"/>
      <point x="398" y="675" type="line"/>
      <point x="181" y="675" type="line"/>
    </contour>
    <contour>
      <point x="52" y="1038" type="line"/>
      <point x="1204" y="1038" type="line"/>
      <point x="1204" y="1327" type="line"/>
      <point x="52" y="1327" type="line"/>
    </contour>
  </outline>
</glyph>
<glyph name="tbar" format="1">
  <advance width="915"/>
  <unicode hex="0167"/>
  <outline>
    <contour>
      <point x="558" y="1327" type="line" name="hr00"/>
      <point x="116" y="1177" type="line"/>
      <point x="116" y="1062" type="line"/>
      <point x="28" y="1062" type="line"/>
      <point x="28" y="797" type="line"/>
      <point x="116" y="797" type="line"/>
      <point x="116" y="635" type="line"/>
      <point x="27" y="635" type="line"/>
      <point x="27" y="446" type="line"/>
      <point x="116" y="446" type="line"/>
      <point x="116" y="265" type="line"/>
      <point x="382" y="0" type="line"/>
      <point x="850" y="0" type="line"/>
      <point x="850" y="265" type="line"/>
      <point x="558" y="265" type="line"/>
      <point x="558" y="446" type="line"/>
      <point x="696" y="446" type="line"/>
      <point x="696" y="635" type="line"/>
      <point x="558" y="635" type="line"/>
    </contour>
    <contour>
      <point x="866" y="797" type="line"/>
      <point x="866" y="1062" type="line"/>
      <point x="628" y="1062" type="line"/>
      <point x="628" y="797" type="line"/>
    </contour>
  </outline>
</glyph>
<glyph name="Uring" format="1">
  <advance width="1495"/>
  <unicode hex="016E"/>
  <outline>
    <contour>
      <point x="1388" y="1327" type="line"/>
      <point x="946" y="1327" type="line"/>
      <point x="946" y="265" type="line"/>
      <point x="782" y="265" type="line"/>
      <point x="782" y="0" type="line"/>
      <point x="1123" y="0" type="line"/>
      <point x="1388" y="265" type="line"/>
    </contour>
    <contour>
      <point x="549" y="1327" type="line"/>
      <point x="106" y="1327" type="line"/>
      <point x="106" y="265" type="line"/>
      <point x="372" y="0" type="line"/>
      <point x="712" y="0" type="line"/>
      <point x="712" y="265" type="line"/>
      <point x="549" y="265" type="line"/>
    </contour>
    <contour>
      <point x="897" y="1333" type="line" name="hr01"/>
      <point x="1036" y="1470" type="line"/>
      <point x="1036" y="1628" type="line"/>
      <point x="897" y="1765" type="line"/>
      <point x="780" y="1765" type="line"/>
      <point x="780" y="1610" type="line"/>
      <point x="858" y="1610" type="line"/>
      <point x="858" y="1489" type="line"/>
      <point x="780" y="1489" type="line"/>
      <point x="780" y="1333" type="line"/>
    </contour>
    <contour>
      <point x="634" y="1489" type="line"/>
      <point x="634" y="1610" type="line"/>
      <point x="711" y="1610" type="line"/>
      <point x="711" y="1765" type="line"/>
      <point x="592" y="1765" type="line"/>
      <point x="455" y="1628" type="line"/>
      <point x="455" y="1470" type="line"/>
      <point x="592" y="1333" type="line"/>
      <point x="711" y="1333" type="line"/>
      <point x="711" y="1489" type="line"/>
    </contour>
  </outline>
</glyph>
<glyph name="florin" format="1">
  <advance width="1194"/>
  <unicode hex="0192"/>
  <outline>
    <contour>
      <point x="1133" y="1202" type="line" name="hr00"/>
      <point x="1167" y="1467" type="line"/>
      <point x="671" y="1467" type="line"/>
      <point x="372" y="1219" type="line"/>
      <point x="329" y="843" type="line"/>
      <point x="224" y="843" type="line"/>
      <point x="190" y="578" type="line"/>
      <point x="295" y="578" type="line"/>
      <point x="168" y="-340" type="line"/>
      <point x="611" y="-340" type="line"/>
      <point x="813" y="1202" type="line"/>
    </contour>
    <contour>
      <point x="1058" y="578" type="line"/>
      <point x="1092" y="843" type="line"/>
      <point x="842" y="843" type="line"/>
      <point x="805" y="578" type="line"/>
    </contour>
  </outline>
</glyph>
<glyph name="circumflex" format="1">
  <advance width="1240"/>
  <unicode hex="02C6"/>
  <outline>
    <contour>
      <point x="772" y="1585" type="line" name="hr00"/>
      <point x="468" y="1585" type="line"/>
      <point x="173" y="1250" type="line"/>
      <point x="267" y="1153" type="line"/>
      <point x="620" y="1363" type="line"/>
      <point x="974" y="1153" type="line"/>
      <point x="1067" y="1250" type="line"/>
    </contour>
    <contour>
      <point x="620" y="1223" type="move" name="_top"/>
    </contour>
  </outline>
</glyph>
<glyph name="caron" format="1">
  <advance width="1240"/>
  <unicode hex="02C7"/>
  <outline>
    <contour>
      <point x="468" y="1153" type="line" name="hr00"/>
      <point x="772" y="1153" type="line"/>
      <point x="1067" y="1487" type="line"/>
      <point x="973" y="1584" type="line"/>
      <point x="619" y="1374" type="line"/>
      <point x="266" y="1584" type="line"/>
      <point x="173" y="1487" type="line"/>
    </contour>
    <contour>
      <point x="612" y="1223" type="move" name="_top"/>
    </contour>
  </outline>
</glyph>
<glyph name="breve" format="1">
  <advance width="1240"/>
  <unicode hex="02D8"/>
  <outline>
    <contour>
      <point x="296" y="1299" type="line" name="hr00"/>
      <point x="442" y="1155" type="line"/>
      <point x="803" y="1155" type="line"/>
      <point x="949" y="1299" type="line"/>
      <point x="1005" y="1530" type="line"/>
      <point x="867" y="1569" type="line"/>
      <point x="785" y="1387" type="line"/>
      <point x="460" y="1387" type="line"/>
      <point x="378" y="1569" type="line"/>
      <point x="240" y="1530" type="line"/>
    </contour>
    <contour>
      <point x="623" y="1223" type="move" name="_top"/>
    </contour>
  </outline>
</glyph>
<glyph name="dotaccent" format="1">
  <advance width="680"/>
  <unicode hex="02D9"/>
  <outline>
    <contour>
      <point x="170" y="1279" type="line" name="hr00"/>
      <point x="506" y="1279" type="line"/>
      <point x="506" y="1560" type="line"/>
      <point x="170" y="1560" type="line"/>
    </contour>
    <contour>
      <point x="338" y="1223" type="move" name="_top"/>
    </contour>
  </outline>
</glyph>
<glyph name="ring" format="1">
  <advance width="1145"/>
  <unicode hex="02DA"/>
  <outline>
    <contour>
      <point x="702" y="1200" type="line" name="hr00"/>
      <point x="841" y="1337" type="line"/>
      <point x="841" y="1545" type="line"/>
      <point x="702" y="1682" type="line"/>
      <point x="605" y="1682" type="line"/>
      <point x="605" y="1527" type="line"/>
      <point x="683" y="1527" type="line"/>
      <point x="683" y="1356" type="line"/>
      <point x="605" y="1356" type="line"/>
      <point x="605" y="1200" type="line"/>
    </contour>
    <contour>
      <point x="459" y="1356" type="line"/>
      <point x="459" y="1527" type="line"/>
      <point x="536" y="1527" type="line"/>
      <point x="536" y="1682" type="line"/>
      <point x="437" y="1682" type="line"/>
      <point x="300" y="1545" type="line"/>
      <point x="300" y="1337" type="line"/>
      <point x="437" y="1200" type="line"/>
      <point x="536" y="1200" type="line"/>
      <point x="536" y="1356" type="line"/>
    </contour>
    <contour>
      <point x="572" y="1223" type="move" name="_top"/>
    </contour>
  </outline>
</glyph>
<glyph name="ogonek" format="1">
  <advance width="1008"/>
  <unicode hex="02DB"/>
  <outline>
    <contour>
      <point x="597" y="-175" type="line" name="hr00"/>
      <point x="597" y="-62" type="line"/>
      <point x="395" y="-62" type="line"/>
      <point x="395" y="-245" type="line"/>
      <point x="570" y="-445" type="line"/>
      <point x="852" y="-445" type="line"/>
      <point x="852" y="-175" type="line"/>
    </contour>
    <contour>
      <point x="596" y="0" type="move" name="_btm"/>
    </contour>
  </outline>
</glyph>
<glyph name="tilde" format="1">
  <advance width="1309"/>
  <unicode hex="02DC"/>
  <outline>
    <contour>
      <point x="411" y="1558" type="line" name="hr00"/>
      <point x="216" y="1344" type="line"/>
      <point x="303" y="1257" type="line"/>
      <point x="441" y="1371" type="line"/>
      <point x="508" y="1371" type="line"/>
      <point x="616" y="1221" type="line"/>
      <point x="899" y="1221" type="line"/>
      <point x="1094" y="1435" type="line"/>
      <point x="1007" y="1522" type="line"/>
      <point x="869" y="1407" type="line"/>
      <point x="802" y="1407" type="line"/>
      <point x="694" y="1558" type="line"/>
    </contour>
    <contour>
      <point x="654" y="1223" type="move" name="_top"/>
    </contour>
  </outline>
</glyph>
<glyph name="hungarumlaut" format="1">
  <advance width="1098"/>
  <unicode hex="02DD"/>
  <outline>
    <contour>
      <point x="204" y="1271" type="line" name="hr00"/>
      <point x="306" y="1144" type="line"/>
      <point x="712" y="1371" type="line"/>
      <point x="726" y="1552" type="line"/>
      <point x="542" y="1607" type="line"/>
    </contour>
    <contour>
      <point x="752" y="1271" type="line"/>
      <point x="854" y="1144" type="line"/>
      <point x="1260" y="1371" type="line"/>
      <point x="1274" y="1552" type="line"/>
      <point x="1090" y="1607" type="line"/>
    </contour>
    <contour>
      <point x="559" y="1223" type="move" name="_top"/>
    </contour>
  </outline>
</glyph>
<glyph name="Delta" format="1">
  <advance width="1500"/>
  <unicode hex="0394"/>
  <unicode hex="2206"/>
  <outline>
    <contour>
      <point x="510" y="0" type="line" name="hr00"/>
      <point x="1491" y="0" type="line"/>
      <point x="963" y="1327" type="line"/>
      <point x="532" y="1327" type="line"/>
      <point x="942" y="263" type="line"/>
      <point x="602" y="263" type="line"/>
    </contour>
    <contour>
      <point x="680" y="740" type="line"/>
      <point x="484" y="1267" type="line"/>
      <point x="9" y="0" type="line"/>
      <point x="436" y="0" type="line"/>
    </contour>
    <contour>
      <point x="746" y="1530" type="move" name="top"/>
    </contour>
  </outline>
</glyph>
<glyph name="pi" format="1">
  <advance width="1383"/>
  <unicode hex="03C0"/>
  <outline>
    <contour>
      <point x="95" y="0" type="line" name="hr00"/>
      <point x="535" y="0" type="line"/>
      <point x="535" y="724" type="line"/>
      <point x="95" y="724" type="line"/>
    </contour>
    <contour>
      <point x="95" y="793" type="line"/>
      <point x="1289" y="793" type="line"/>
      <point x="1289" y="1062" type="line"/>
      <point x="95" y="1062" type="line"/>
    </contour>
    <contour>
      <point x="850" y="0" type="line"/>
      <point x="1290" y="0" type="line"/>
      <point x="1290" y="724" type="line"/>
      <point x="850" y="724" type="line"/>
    </contour>
  </outline>
</glyph>
<glyph name="endash" format="1">
  <advance width="1623"/>
  <unicode hex="2013"/>
  <outline>
    <contour>
      <point x="186" y="501" type="line" name="hr00"/>
      <point x="1437" y="501" type="line"/>
      <point x="1437" y="740" type="line"/>
      <point x="186" y="740" type="line"/>
    </contour>
  </outline>
</glyph>
<glyph name="emdash" format="1">
  <advance width="1991"/>
  <unicode hex="2014"/>
  <outline>
    <contour>
      <point x="186" y="501" type="line" name="hr00"/>
      <point x="1805" y="501" type="line"/>
      <point x="1805" y="740" type="line"/>
      <point x="186" y="740" type="line"/>
    </contour>
  </outline>
</glyph>
<glyph name="quoteleft" format="1">
  <advance width="814"/>
  <unicode hex="2018"/>
  <outline>
    <contour>
      <point x="650" y="1062" type="line" name="hr00"/>
      <point x="482" y="1062" type="line"/>
      <point x="607" y="1327" type="line"/>
      <point x="340" y="1327" type="line"/>
      <point x="164" y="1062" type="line"/>
      <point x="164" y="752" type="line"/>
      <point x="650" y="752" type="line"/>
    </contour>
  </outline>
</glyph>
<glyph name="dagger" format="1">
  <advance width="1507"/>
  <unicode hex="2020"/>
  <outline>
    <contour>
      <point x="708" y="-315" type="line" name="hr00"/>
      <point x="799" y="-315" type="line"/>
      <point x="950" y="430" type="line"/>
      <point x="948" y="431" type="line"/>
      <point x="849" y="821" type="line"/>
      <point x="1211" y="759" type="line"/>
      <point x="1346" y="921" type="line"/>
      <point x="1211" y="1083" type="line"/>
      <point x="847" y="1020" type="line"/>
      <point x="915" y="1416" type="line"/>
      <point x="753" y="1551" type="line"/>
      <point x="592" y="1416" type="line"/>
      <point x="660" y="1020" type="line"/>
      <point x="295" y="1084" type="line"/>
      <point x="161" y="923" type="line"/>
      <point x="295" y="761" type="line"/>
      <point x="657" y="822" type="line"/>
      <point x="556" y="429" type="line"/>
      <point x="557" y="429" type="line"/>
    </contour>
  </outline>
</glyph>
<glyph name="daggerdbl" format="1">
  <advance width="1507"/>
  <unicode hex="2021"/>
  <outline>
    <contour>
      <point x="658" y="414" type="line" name="hr00"/>
      <point x="295" y="476" type="line"/>
      <point x="161" y="314" type="line"/>
      <point x="295" y="153" type="line"/>
      <point x="660" y="215" type="line"/>
      <point x="592" y="-181" type="line"/>
      <point x="753" y="-315" type="line"/>
      <point x="915" y="-181" type="line"/>
      <point x="847" y="215" type="line"/>
      <point x="1211" y="151" type="line"/>
      <point x="1346" y="313" type="line"/>
      <point x="1211" y="474" type="line"/>
      <point x="852" y="414" type="line"/>
      <point x="952" y="615" type="line"/>
      <point x="854" y="820" type="line"/>
      <point x="1211" y="759" type="line"/>
      <point x="1346" y="920" type="line"/>
      <point x="1211" y="1082" type="line"/>
      <point x="847" y="1020" type="line"/>
      <point x="915" y="1415" type="line"/>
      <point x="753" y="1550" type="line"/>
      <point x="592" y="1415" type="line"/>
      <point x="660" y="1020" type="line"/>
      <point x="295" y="1083" type="line"/>
      <point x="161" y="922" type="line"/>
      <point x="295" y="760" type="line"/>
      <point x="654" y="820" type="line"/>
      <point x="557" y="614" type="line"/>
    </contour>
  </outline>
</glyph>
<glyph name="bullet" format="1">
  <advance width="918"/>
  <unicode hex="2022"/>
  <outline>
    <contour>
      <point x="149" y="789" type="line" name="hr00"/>
      <point x="149" y="524" type="line"/>
      <point x="326" y="346" type="line"/>
      <point x="592" y="346" type="line"/>
      <point x="768" y="524" type="line"/>
      <point x="768" y="789" type="line"/>
      <point x="592" y="966" type="line"/>
      <point x="326" y="966" type="line"/>
    </contour>
  </outline>
</glyph>
<glyph name="perthousand" format="1">
  <advance width="3052"/>
  <unicode hex="2030"/>
  <outline>
    <contour>
      <point x="746" y="-196" type="line" name="hr00"/>
      <point x="996" y="-196" type="line"/>
      <point x="1609" y="1458" type="line"/>
      <point x="1359" y="1458" type="line"/>
    </contour>
    <contour>
      <point x="2355" y="547" type="line"/>
      <point x="2419" y="547" type="line"/>
      <point x="2419" y="746" type="line"/>
      <point x="2222" y="746" type="line"/>
      <point x="2125" y="649" type="line"/>
      <point x="2028" y="746" type="line"/>
      <point x="1829" y="746" type="line"/>
      <point x="1829" y="547" type="line"/>
      <point x="1895" y="547" type="line"/>
      <point x="1895" y="200" type="line"/>
      <point x="1829" y="200" type="line"/>
      <point x="1829" y="0" type="line"/>
      <point x="2028" y="0" type="line"/>
      <point x="2125" y="97" type="line"/>
      <point x="2222" y="0" type="line"/>
      <point x="2419" y="0" type="line"/>
      <point x="2419" y="200" type="line"/>
      <point x="2355" y="200" type="line"/>
    </contour>
    <contour>
      <point x="1029" y="1129" type="line"/>
      <point x="829" y="1329" type="line"/>
      <point x="631" y="1329" type="line"/>
      <point x="631" y="1129" type="line"/>
      <point x="696" y="1129" type="line"/>
      <point x="696" y="783" type="line"/>
      <point x="631" y="783" type="line"/>
      <point x="631" y="582" type="line"/>
      <point x="829" y="582" type="line"/>
      <point x="1029" y="783" type="line"/>
    </contour>
    <contour>
      <point x="497" y="1129" type="line"/>
      <point x="561" y="1129" type="line"/>
      <point x="561" y="1329" type="line"/>
      <point x="364" y="1329" type="line"/>
      <point x="164" y="1129" type="line"/>
      <point x="164" y="783" type="line"/>
      <point x="364" y="582" type="line"/>
      <point x="561" y="582" type="line"/>
      <point x="561" y="783" type="line"/>
      <point x="497" y="783" type="line"/>
    </contour>
    <contour>
      <point x="2887" y="547" type="line"/>
      <point x="2688" y="746" type="line"/>
      <point x="2489" y="746" type="line"/>
      <point x="2489" y="547" type="line"/>
      <point x="2555" y="547" type="line"/>
      <point x="2555" y="200" type="line"/>
      <point x="2489" y="200" type="line"/>
      <point x="2489" y="0" type="line"/>
      <point x="2688" y="0" type="line"/>
      <point x="2887" y="200" type="line"/>
    </contour>
    <contour>
      <point x="1695" y="547" type="line"/>
      <point x="1759" y="547" type="line"/>
      <point x="1759" y="746" type="line"/>
      <point x="1562" y="746" type="line"/>
      <point x="1363" y="547" type="line"/>
      <point x="1363" y="200" type="line"/>
      <point x="1562" y="0" type="line"/>
      <point x="1759" y="0" type="line"/>
      <point x="1759" y="200" type="line"/>
      <point x="1695" y="200" type="line"/>
    </contour>
  </outline>
</glyph>
<glyph name="guilsinglleft" format="1">
  <advance width="1090"/>
  <unicode hex="2039"/>
  <outline>
    <contour>
      <point x="202" y="459" type="line" name="hr00"/>
      <point x="622" y="27" type="line"/>
      <point x="887" y="27" type="line"/>
      <point x="606" y="536" type="line"/>
      <point x="887" y="1045" type="line"/>
      <point x="622" y="1045" type="line"/>
      <point x="202" y="613" type="line"/>
    </contour>
  </outline>
</glyph>
<glyph name="fraction" format="1">
  <advance width="729"/>
  <unicode hex="2044"/>
  <outline>
    <contour>
      <point x="0" y="0" type="line" name="hr00"/>
      <point x="250" y="0" type="line"/>
      <point x="729" y="1327" type="line"/>
      <point x="480" y="1327" type="line"/>
    </contour>
  </outline>
</glyph>
<glyph name="Euro" format="1">
  <advance width="1838"/>
  <unicode hex="20AC"/>
  <outline>
    <contour>
      <point x="204" y="763" type="line" name="hr00"/>
      <point x="326" y="763" type="line"/>
      <point x="326" y="616" type="line"/>
      <point x="187" y="616" type="line"/>
      <point x="187" y="474" type="line"/>
      <point x="326" y="474" type="line"/>
      <point x="326" y="265" type="line"/>
      <point x="591" y="0" type="line"/>
      <point x="768" y="0" type="line"/>
      <point x="768" y="474" type="line"/>
      <point x="1030" y="474" type="line"/>
      <point x="1030" y="616" type="line"/>
      <point x="768" y="616" type="line"/>
      <point x="768" y="763" type="line"/>
      <point x="1057" y="763" type="line"/>
      <point x="1057" y="905" type="line"/>
      <point x="768" y="905" type="line"/>
      <point x="768" y="1375" type="line"/>
      <point x="591" y="1375" type="line"/>
      <point x="326" y="1109" type="line"/>
      <point x="326" y="905" type="line"/>
      <point x="204" y="905" type="line"/>
    </contour>
    <contour>
      <point x="1166" y="1109" type="line"/>
      <point x="1166" y="900" type="line"/>
      <point x="1608" y="900" type="line"/>
      <point x="1608" y="1109" type="line"/>
      <point x="1343" y="1375" type="line"/>
      <point x="835" y="1375" type="line"/>
      <point x="835" y="1109" type="line"/>
    </contour>
    <contour>
      <point x="1343" y="0" type="line"/>
      <point x="1608" y="265" type="line"/>
      <point x="1608" y="474" type="line"/>
      <point x="1166" y="474" type="line"/>
      <point x="1166" y="265" type="line"/>
      <point x="835" y="265" type="line"/>
      <point x="835" y="0" type="line"/>
    </contour>
  </outline>
</glyph>
<glyph name="trademark" format="1">
  <advance width="1507"/>
  <unicode hex="2122"/>
  <outline>
    <contour>
      <point x="1000" y="738" type="line" name="hr00"/>
      <point x="1107" y="919" type="line"/>
      <point x="1107" y="1216" type="line"/>
      <point x="1019" y="1064" type="line"/>
      <point x="859" y="1328" type="line"/>
      <point x="651" y="1328" type="line"/>
    </contour>
    <contour>
      <point x="1370" y="738" type="line"/>
      <point x="1370" y="1328" type="line"/>
      <point x="1174" y="1328" type="line"/>
      <point x="1174" y="738" type="line"/>
    </contour>
    <contour>
      <point x="273" y="738" type="line"/>
      <point x="477" y="738" type="line"/>
      <point x="477" y="1121" type="line"/>
      <point x="273" y="1121" type="line"/>
    </contour>
    <contour>
      <point x="98" y="1328" type="line"/>
      <point x="98" y="1182" type="line"/>
      <point x="660" y="1182" type="line"/>
      <point x="572" y="1328" type="line"/>
    </contour>
    <contour>
      <point x="835" y="738" type="line"/>
      <point x="835" y="894" type="line"/>
      <point x="696" y="1121" type="line"/>
      <point x="651" y="1121" type="line"/>
      <point x="651" y="738" type="line"/>
    </contour>
  </outline>
</glyph>
<glyph name="Omega" format="1">
  <advance width="1463"/>
  <unicode hex="2126"/>
  <outline>
    <contour>
      <point x="88" y="1" type="line" name="hr00"/>
      <point x="645" y="1" type="line"/>
      <point x="645" y="400" type="line"/>
      <point x="529" y="520" type="line"/>
      <point x="529" y="1058" type="line"/>
      <point x="695" y="1058" type="line"/>
      <point x="695" y="1327" type="line"/>
      <point x="355" y="1327" type="line"/>
      <point x="86" y="1062" type="line"/>
      <point x="86" y="515" type="line"/>
      <point x="355" y="250" type="line"/>
      <point x="88" y="250" type="line"/>
    </contour>
    <contour>
      <point x="1374" y="250" type="line"/>
      <point x="1107" y="250" type="line"/>
      <point x="1376" y="515" type="line"/>
      <point x="1376" y="1062" type="line"/>
      <point x="1107" y="1327" type="line"/>
      <point x="767" y="1327" type="line"/>
      <point x="767" y="1058" type="line"/>
      <point x="933" y="1058" type="line"/>
      <point x="933" y="520" type="line"/>
      <point x="817" y="400" type="line"/>
      <point x="817" y="1" type="line"/>
      <point x="1374" y="1" type="line"/>
    </contour>
  </outline>
</glyph>
<glyph name="partialdiff" format="1">
  <advance width="1353"/>
  <unicode hex="2202"/>
  <outline>
    <contour>
      <point x="816" y="265" type="line" name="hr00"/>
      <point x="707" y="265" type="line"/>
      <point x="707" y="0" type="line"/>
      <point x="992" y="0" type="line"/>
      <point x="1258" y="265" type="line"/>
      <point x="1258" y="1202" type="line"/>
      <point x="992" y="1467" type="line"/>
      <point x="707" y="1467" type="line"/>
      <point x="707" y="1202" type="line"/>
      <point x="816" y="1202" type="line"/>
    </contour>
    <contour>
      <point x="744" y="686" type="line"/>
      <point x="744" y="934" type="line"/>
      <point x="351" y="934" type="line"/>
      <point x="91" y="691" type="line"/>
      <point x="91" y="265" type="line"/>
      <point x="356" y="0" type="line"/>
      <point x="637" y="0" type="line"/>
      <point x="637" y="265" type="line"/>
      <point x="536" y="265" type="line"/>
      <point x="536" y="686" type="line"/>
    </contour>
    <contour>
      <point x="637" y="1202" type="line"/>
      <point x="637" y="1467" type="line"/>
      <point x="376" y="1467" type="line"/>
      <point x="111" y="1202" type="line"/>
      <point x="111" y="1095" type="line"/>
      <point x="513" y="1095" type="line"/>
      <point x="513" y="1202" type="line"/>
    </contour>
  </outline>
</glyph>
<glyph name="product" format="1">
  <advance width="1463"/>
  <unicode hex="220F"/>
  <outline>
    <contour>
      <point x="87" y="-169" type="line" name="hr00"/>
      <point x="527" y="-169" type="line"/>
      <point x="527" y="989" type="line"/>
      <point x="87" y="989" type="line"/>
    </contour>
    <contour>
      <point x="87" y="1058" type="line"/>
      <point x="1375" y="1058" type="line"/>
      <point x="1375" y="1327" type="line"/>
      <point x="87" y="1327" type="line"/>
    </contour>
    <contour>
      <point x="935" y="-169" type="line"/>
      <point x="1375" y="-169" type="line"/>
      <point x="1375" y="989" type="line"/>
      <point x="935" y="989" type="line"/>
    </contour>
    <contour>
      <point x="759" y="1530" type="move" name="top"/>
    </contour>
  </outline>
</glyph>
<glyph name="summation" format="1">
  <advance width="1415"/>
  <unicode hex="2211"/>
  <outline>
    <contour>
      <point x="872" y="565" type="line" name="hr00"/>
      <point x="477" y="1327" type="line"/>
      <point x="117" y="1327" type="line"/>
      <point x="117" y="1103" type="line"/>
      <point x="453" y="568" type="line"/>
      <point x="117" y="52" type="line"/>
      <point x="118" y="-173" type="line"/>
      <point x="476" y="-173" type="line"/>
    </contour>
    <contour>
      <point x="548" y="1327" type="line"/>
      <point x="671" y="1062" type="line"/>
      <point x="878" y="1062" type="line"/>
      <point x="878" y="929" type="line"/>
      <point x="1320" y="929" type="line"/>
      <point x="1320" y="1327" type="line"/>
    </contour>
    <contour>
      <point x="1320" y="-173" type="line"/>
      <point x="1320" y="225" type="line"/>
      <point x="878" y="225" type="line"/>
      <point x="878" y="92" type="line"/>
      <point x="671" y="92" type="line"/>
      <point x="545" y="-173" type="line"/>
    </contour>
  </outline>
</glyph>
<glyph name="radical" format="1">
  <advance width="1192"/>
  <unicode hex="221A"/>
  <outline>
    <contour>
      <point x="383" y="0" type="line" name="hr00"/>
      <point x="803" y="0" type="line"/>
      <point x="425" y="1062" type="line"/>
      <point x="-14" y="1062" type="line"/>
    </contour>
    <contour>
      <point x="1380" y="1766" type="line"/>
      <point x="967" y="1766" type="line"/>
      <point x="650" y="621" type="line"/>
      <point x="848" y="59" type="line"/>
    </contour>
  </outline>
</glyph>
<glyph name="infinity" format="1">
  <advance width="2130"/>
  <unicode hex="221E"/>
  <outline>
    <contour>
      <point x="2035" y="797" type="line" name="hr00"/>
      <point x="1770" y="1062" type="line"/>
      <point x="1372" y="1062" type="line"/>
      <point x="1250" y="934" type="line"/>
      <point x="1387" y="797" type="line"/>
      <point x="1584" y="797" type="line"/>
      <point x="1584" y="247" type="line"/>
      <point x="1474" y="247" type="line"/>
      <point x="1474" y="0" type="line"/>
      <point x="1770" y="0" type="line"/>
      <point x="2035" y="265" type="line"/>
    </contour>
    <contour>
      <point x="1289" y="797" type="line"/>
      <point x="1024" y="1062" type="line"/>
      <point x="728" y="1062" type="line"/>
      <point x="728" y="797" type="line"/>
      <point x="838" y="797" type="line"/>
      <point x="838" y="247" type="line"/>
      <point x="1085" y="0" type="line"/>
      <point x="1404" y="0" type="line"/>
      <point x="1404" y="247" type="line"/>
      <point x="1289" y="247" type="line"/>
    </contour>
    <contour>
      <point x="95" y="265" type="line"/>
      <point x="360" y="0" type="line"/>
      <point x="733" y="0" type="line"/>
      <point x="855" y="128" type="line"/>
      <point x="736" y="247" type="line"/>
      <point x="546" y="247" type="line"/>
      <point x="546" y="797" type="line"/>
      <point x="656" y="797" type="line"/>
      <point x="656" y="1062" type="line"/>
      <point x="360" y="1062" type="line"/>
      <point x="95" y="797" type="line"/>
    </contour>
  </outline>
</glyph>
<glyph name="integral" format="1">
  <advance width="1361"/>
  <unicode hex="222B"/>
  <outline>
    <contour>
      <point x="139" y="-239" type="line"/>
      <point x="139" y="-504" type="line"/>
      <point x="635" y="-504" type="line"/>
      <point x="902" y="-256" type="line"/>
      <point x="902" y="1606" type="line"/>
      <point x="1222" y="1606" type="line"/>
      <point x="1222" y="1871" type="line"/>
      <point x="726" y="1871" type="line"/>
      <point x="459" y="1623" type="line"/>
      <point x="459" y="-239" type="line"/>
    </contour>
  </outline>
</glyph>
<glyph name="notequal" format="1">
  <advance width="1439"/>
  <unicode hex="2260"/>
  <outline>
    <contour>
      <point x="186" y="761" type="line" name="hr00"/>
      <point x="640" y="761" type="line"/>
      <point x="542" y="442" type="line"/>
      <point x="186" y="442" type="line"/>
      <point x="186" y="204" type="line"/>
      <point x="469" y="204" type="line"/>
      <point x="406" y="0" type="line"/>
      <point x="656" y="0" type="line"/>
      <point x="718" y="204" type="line"/>
      <point x="1253" y="204" type="line"/>
      <point x="1253" y="442" type="line"/>
      <point x="791" y="442" type="line"/>
      <point x="889" y="761" type="line"/>
      <point x="1253" y="761" type="line"/>
      <point x="1253" y="1000" type="line"/>
      <point x="963" y="1000" type="line"/>
      <point x="1032" y="1223" type="line"/>
      <point x="783" y="1223" type="line"/>
      <point x="714" y="1000" type="line"/>
      <point x="186" y="1000" type="line"/>
    </contour>
  </outline>
</glyph>
<glyph name="lessequal" format="1">
  <advance width="1360"/>
  <unicode hex="2264"/>
  <outline>
    <contour>
      <point x="1213" y="1067" type="line" name="hr00"/>
      <point x="1213" y="1316" type="line"/>
      <point x="146" y="1024" type="line"/>
      <point x="146" y="789" type="line"/>
    </contour>
    <contour>
      <point x="146" y="-35" type="line"/>
      <point x="1213" y="-35" type="line"/>
      <point x="1213" y="203" type="line"/>
      <point x="146" y="203" type="line"/>
    </contour>
    <contour>
      <point x="1213" y="451" type="line"/>
      <point x="1213" y="699" type="line"/>
      <point x="652" y="847" type="line"/>
      <point x="200" y="731" type="line"/>
    </contour>
  </outline>
</glyph>
<glyph name="lozenge" format="1">
  <advance width="1226"/>
  <unicode hex="25CA"/>
  <outline>
    <contour>
      <point x="767" y="125" type="line" name="hr00"/>
      <point x="1050" y="658" type="line"/>
      <point x="726" y="1268" type="line"/>
      <point x="492" y="1268" type="line"/>
      <point x="789" y="659" type="line"/>
      <point x="649" y="368" type="line"/>
    </contour>
    <contour>
      <point x="458" y="1191" type="line"/>
      <point x="175" y="658" type="line"/>
      <point x="499" y="48" type="line"/>
      <point x="733" y="48" type="line"/>
      <point x="436" y="657" type="line"/>
      <point x="576" y="948" type="line"/>
    </contour>
  </outline>
</glyph>
<glyph name="ff" format="1">
  <advance width="1814"/>
  <unicode hex="FB00"/>
  <outline>
    <contour>
      <point x="1813" y="1202" type="line" name="hr00"/>
      <point x="1813" y="1467" type="line"/>
      <point x="1317" y="1467" type="line"/>
      <point x="1050" y="1219" type="line"/>
      <point x="1050" y="1062" type="line"/>
      <point x="656" y="1062" type="line"/>
      <point x="653" y="797" type="line"/>
      <point x="1050" y="797" type="line"/>
      <point x="1050" y="0" type="line"/>
      <point x="1493" y="0" type="line"/>
      <point x="1493" y="1202" type="line"/>
    </contour>
    <contour>
      <point x="906" y="1202" type="line"/>
      <point x="906" y="1467" type="line"/>
      <point x="410" y="1467" type="line"/>
      <point x="143" y="1219" type="line"/>
      <point x="143" y="1062" type="line"/>
      <point x="38" y="1062" type="line"/>
      <point x="38" y="797" type="line"/>
      <point x="143" y="797" type="line"/>
      <point x="143" y="0" type="line"/>
      <point x="586" y="0" type="line"/>
      <point x="586" y="1202" type="line"/>
    </contour>
    <contour>
      <point x="1813" y="797" type="line"/>
      <point x="1813" y="1062" type="line"/>
      <point x="1563" y="1062" type="line"/>
      <point x="1560" y="797" type="line"/>
    </contour>
  </outline>
</glyph>
<glyph name="fi" format="1">
  <advance width="1560"/>
  <unicode hex="FB01"/>
  <outline>
    <contour>
      <point x="906" y="1202" type="line" name="hr00"/>
      <point x="906" y="1467" type="line"/>
      <point x="410" y="1467" type="line"/>
      <point x="143" y="1219" type="line"/>
      <point x="143" y="1062" type="line"/>
      <point x="38" y="1062" type="line"/>
      <point x="38" y="797" type="line"/>
      <point x="143" y="797" type="line"/>
      <point x="143" y="0" type="line"/>
      <point x="586" y="0" type="line"/>
      <point x="586" y="1202" type="line"/>
    </contour>
    <contour>
      <point x="1012" y="0" type="line"/>
      <point x="1455" y="0" type="line"/>
      <point x="1455" y="1062" type="line"/>
      <point x="656" y="1062" type="line"/>
      <point x="653" y="797" type="line"/>
      <point x="1012" y="797" type="line"/>
    </contour>
    <contour>
      <point x="1012" y="1194" type="line"/>
      <point x="1455" y="1194" type="line"/>
      <point x="1455" y="1476" type="line"/>
      <point x="1012" y="1476" type="line"/>
    </contour>
  </outline>
</glyph>
<glyph name="fl" format="1">
  <advance width="1660"/>
  <unicode hex="FB02"/>
  <outline>
    <contour>
      <point x="1651" y="265" type="line" name="hr00"/>
      <point x="1453" y="265" type="line"/>
      <point x="1453" y="1202" type="line"/>
      <point x="1455" y="1202" type="line"/>
      <point x="1455" y="1467" type="line"/>
      <point x="410" y="1467" type="line"/>
      <point x="143" y="1219" type="line"/>
      <point x="143" y="1062" type="line"/>
      <point x="38" y="1062" type="line"/>
      <point x="38" y="797" type="line"/>
      <point x="143" y="797" type="line"/>
      <point x="143" y="0" type="line"/>
      <point x="586" y="0" type="line"/>
      <point x="586" y="1202" type="line"/>
      <point x="1011" y="1202" type="line"/>
      <point x="1011" y="248" type="line"/>
      <point x="1259" y="0" type="line"/>
      <point x="1651" y="0" type="line"/>
    </contour>
    <contour>
      <point x="906" y="797" type="line"/>
      <point x="906" y="1062" type="line"/>
      <point x="656" y="1062" type="line"/>
      <point x="653" y="797" type="line"/>
    </contour>
  </outline>
</glyph>
<glyph name=".notdef" format="1">
  <advance width="1837"/>
  <outline>
    <contour>
      <point x="440" y="310" type="line" name="hr00"/>
      <point x="755" y="621" type="line"/>
      <point x="442" y="932" type="line"/>
      <point x="607" y="1102" type="line"/>
      <point x="918" y="786" type="line"/>
      <point x="1229" y="1101" type="line"/>
      <point x="1394" y="933" type="line"/>
      <point x="1081" y="623" type="line"/>
      <point x="1396" y="312" type="line"/>
      <point x="1229" y="142" type="line"/>
      <point x="917" y="457" type="line"/>
      <point x="604" y="142" type="line"/>
    </contour>
    <contour>
      <point x="162" y="1443" type="line"/>
      <point x="162" y="-168" type="line"/>
      <point x="1674" y="-168" type="line"/>
      <point x="1674" y="1443" type="line"/>
    </contour>
  </outline>
</glyph>
<glyph name="acute.cap" format="1">
  <advance width="783"/>
  <outline>
    <contour>
      <point x="156" y="1526" type="line" name="hr00"/>
      <point x="207" y="1404" type="line"/>
      <point x="710" y="1519" type="line"/>
      <point x="757" y="1688" type="line"/>
      <point x="602" y="1766" type="line"/>
    </contour>
    <contour>
      <point x="316" y="1529" type="move" name="_top"/>
    </contour>
  </outline>
</glyph>
<glyph name="apple" format="1">
  <advance width="1613"/>
  <outline>
    <contour>
      <point x="274" y="890" type="line"/>
      <point x="274" y="432" type="line"/>
      <point x="576" y="130" type="line"/>
      <point x="1035" y="130" type="line"/>
      <point x="1339" y="432" type="line"/>
      <point x="1339" y="890" type="line"/>
      <point x="1035" y="1194" type="line"/>
      <point x="576" y="1194" type="line" name="hr01"/>
    </contour>
    <contour>
      <point x="1108" y="540" type="line"/>
      <point x="1221" y="540" type="line"/>
      <point x="1221" y="429" type="line"/>
      <point x="1035" y="429" type="line"/>
      <point x="924" y="540" type="line"/>
      <point x="924" y="763" type="line"/>
      <point x="885" y="763" type="line"/>
      <point x="885" y="874" type="line"/>
      <point x="924" y="874" type="line"/>
      <point x="924" y="922" type="line" name="hr02"/>
      <point x="1108" y="986" type="line"/>
    </contour>
    <contour>
      <point x="483" y="874" type="line"/>
      <point x="566" y="874" type="line"/>
      <point x="566" y="706" type="line"/>
      <point x="772" y="706" type="line"/>
      <point x="863" y="613" type="line"/>
      <point x="863" y="532" type="line"/>
      <point x="757" y="429" type="line"/>
      <point x="677" y="429" type="line"/>
      <point x="677" y="596" type="line"/>
      <point x="474" y="596" type="line"/>
      <point x="380" y="689" type="line" name="hr03"/>
      <point x="380" y="770" type="line"/>
    </contour>
    <contour>
      <point x="566" y="511" type="line"/>
      <point x="651" y="511" type="line"/>
      <point x="651" y="429" type="line"/>
      <point x="473" y="429" type="line" name="hr05"/>
      <point x="380" y="520" type="line"/>
      <point x="380" y="566" type="line"/>
      <point x="566" y="566" type="line" name="hr04"/>
    </contour>
    <contour>
      <point x="677" y="791" type="line"/>
      <point x="594" y="791" type="line"/>
      <point x="594" y="874" type="line"/>
      <point x="772" y="874" type="line"/>
      <point x="848" y="797" type="line" name="hr06"/>
      <point x="848" y="736" type="line"/>
      <point x="677" y="736" type="line"/>
    </contour>
    <contour>
      <point x="1136" y="763" type="line"/>
      <point x="1136" y="874" type="line"/>
      <point x="1221" y="874" type="line"/>
      <point x="1221" y="763" type="line" name="hr07"/>
    </contour>
  </outline>
</glyph>
<glyph name="breve.cap" format="1">
  <advance width="1240"/>
  <outline>
    <contour>
      <point x="296" y="1535" type="line" name="hr00"/>
      <point x="442" y="1391" type="line"/>
      <point x="803" y="1391" type="line"/>
      <point x="949" y="1535" type="line"/>
      <point x="985" y="1716" type="line"/>
      <point x="847" y="1755" type="line"/>
      <point x="775" y="1603" type="line"/>
      <point x="470" y="1603" type="line"/>
      <point x="398" y="1755" type="line"/>
      <point x="260" y="1716" type="line"/>
    </contour>
    <contour>
      <point x="632" y="1529" type="move" name="_top"/>
    </contour>
  </outline>
</glyph>
<glyph name="caron.cap" format="1">
  <advance width="1240"/>
  <outline>
    <contour>
      <point x="1016" y="1652" type="line" name="hr00"/>
      <point x="938" y="1731" type="line"/>
      <point x="632" y="1573" type="line"/>
      <point x="330" y="1731" type="line"/>
      <point x="253" y="1653" type="line"/>
      <point x="507" y="1392" type="line"/>
      <point x="759" y="1392" type="line"/>
    </contour>
    <contour>
      <point x="632" y="1529" type="move" name="_top"/>
    </contour>
  </outline>
</glyph>
<glyph name="caronvertical" format="1">
  <advance width="680"/>
  <outline>
    <contour>
      <point x="166" y="1018" type="line"/>
      <point x="293" y="1018" type="line"/>
      <point x="269" y="752" type="line"/>
      <point x="455" y="752" type="line"/>
      <point x="552" y="1018" type="line"/>
      <point x="552" y="1327" type="line"/>
      <point x="166" y="1327" type="line"/>
    </contour>
  </outline>
</glyph>
<glyph name="circumflex.cap" format="1">
  <advance width="1240"/>
  <outline>
    <contour>
      <point x="251" y="1472" type="line" name="hr00"/>
      <point x="328" y="1392" type="line"/>
      <point x="634" y="1551" type="line"/>
      <point x="937" y="1392" type="line"/>
      <point x="1013" y="1471" type="line"/>
      <point x="759" y="1731" type="line"/>
      <point x="507" y="1731" type="line"/>
    </contour>
    <contour>
      <point x="634" y="1529" type="move" name="_top"/>
    </contour>
  </outline>
</glyph>
<glyph name="commaaccent" format="1">
  <advance width="936"/>
  <outline>
    <contour>
      <point x="243" y="-461" type="line" name="hr00"/>
      <point x="401" y="-461" type="line"/>
      <point x="340" y="-689" type="line"/>
      <point x="518" y="-689" type="line"/>
      <point x="685" y="-416" type="line"/>
      <point x="685" y="-169" type="line"/>
      <point x="243" y="-169" type="line"/>
    </contour>
    <contour>
      <point x="467" y="0" type="move" name="_btm"/>
    </contour>
  </outline>
</glyph>
<glyph name="dieresis.cap" format="1">
  <advance width="1414"/>
  <outline>
    <contour>
      <point x="274" y="1460" type="line" name="hr01"/>
      <point x="610" y="1460" type="line"/>
      <point x="610" y="1681" type="line"/>
      <point x="274" y="1681" type="line"/>
    </contour>
    <contour>
      <point x="804" y="1460" type="line"/>
      <point x="1140" y="1460" type="line"/>
      <point x="1140" y="1681" type="line"/>
      <point x="804" y="1681" type="line"/>
    </contour>
    <contour>
      <point x="707" y="1529" type="move" name="_top"/>
    </contour>
  </outline>
</glyph>
<glyph name="dotaccent.cap" format="1">
  <advance width="680"/>
  <outline>
    <contour>
      <point x="170" y="1460" type="line" name="hr00"/>
      <point x="506" y="1460" type="line"/>
      <point x="506" y="1681" type="line"/>
      <point x="170" y="1681" type="line"/>
    </contour>
    <contour>
      <point x="336" y="1529" type="move" name="_top"/>
    </contour>
  </outline>
</glyph>
<glyph name="grave.cap" format="1">
  <advance width="783"/>
  <outline>
    <contour>
      <point x="181" y="1766" type="line" name="hr00"/>
      <point x="26" y="1688" type="line"/>
      <point x="73" y="1519" type="line"/>
      <point x="575" y="1404" type="line"/>
      <point x="627" y="1526" type="line"/>
    </contour>
    <contour>
      <point x="467" y="1529" type="move" name="_top"/>
    </contour>
  </outline>
</glyph>
<glyph name="hungarumlaut.cap" format="1">
  <advance width="783"/>
  <outline>
    <contour>
      <point x="3" y="1526" type="line" name="hr00"/>
      <point x="92" y="1414" type="line"/>
      <point x="436" y="1579" type="line"/>
      <point x="434" y="1718" type="line"/>
      <point x="286" y="1766" type="line"/>
    </contour>
    <contour>
      <point x="527" y="1526" type="line"/>
      <point x="616" y="1414" type="line"/>
      <point x="960" y="1579" type="line"/>
      <point x="958" y="1718" type="line"/>
      <point x="810" y="1766" type="line"/>
    </contour>
    <contour>
      <point x="316" y="1529" type="move" name="_top"/>
    </contour>
  </outline>
</glyph>
<glyph name="macron.cap" format="1">
  <advance width="1238"/>
  <outline>
    <contour>
      <point x="251" y="1480" type="line" name="hr00"/>
      <point x="980" y="1480" type="line"/>
      <point x="980" y="1650" type="line"/>
      <point x="251" y="1650" type="line"/>
    </contour>
    <contour>
      <point x="614" y="1529" type="move" name="_top"/>
    </contour>
  </outline>
</glyph>
<glyph name="ring.cap" format="1">
  <advance width="1491"/>
  <outline>
    <contour>
      <point x="722" y="1283" type="line" name="hr00"/>
      <point x="861" y="1420" type="line"/>
      <point x="861" y="1628" type="line"/>
      <point x="722" y="1765" type="line"/>
      <point x="605" y="1765" type="line"/>
      <point x="605" y="1610" type="line"/>
      <point x="683" y="1610" type="line"/>
      <point x="683" y="1439" type="line"/>
      <point x="605" y="1439" type="line"/>
      <point x="605" y="1283" type="line"/>
    </contour>
    <contour>
      <point x="459" y="1439" type="line"/>
      <point x="459" y="1610" type="line"/>
      <point x="536" y="1610" type="line"/>
      <point x="536" y="1765" type="line"/>
      <point x="417" y="1765" type="line"/>
      <point x="280" y="1628" type="line"/>
      <point x="280" y="1420" type="line"/>
      <point x="417" y="1283" type="line"/>
      <point x="536" y="1283" type="line"/>
      <point x="536" y="1439" type="line"/>
    </contour>
    <contour>
      <point x="572" y="1529" type="move" name="_top"/>
    </contour>
  </outline>
</glyph>
<glyph name="tilde.cap" format="1">
  <advance width="1309"/>
  <outline>
    <contour>
      <point x="798" y="1609" type="line" name="hr01"/>
      <point x="638" y="1726" type="line" name="hr02"/>
      <point x="433" y="1726" type="line"/>
      <point x="226" y="1512" type="line"/>
      <point x="290" y="1434" type="line"/>
      <point x="471" y="1540" type="line"/>
      <point x="512" y="1540" type="line"/>
      <point x="672" y="1424" type="line" name="hr03"/>
      <point x="877" y="1424" type="line"/>
      <point x="1084" y="1638" type="line"/>
      <point x="1020" y="1716" type="line"/>
      <point x="839" y="1609" type="line"/>
    </contour>
    <contour>
      <point x="654" y="1529" type="move" name="_top"/>
    </contour>
  </outline>
</glyph>
